<?xml version="1.0" encoding="UTF-8" standalone="no"?>
<!-- Created with Inkscape (http://www.inkscape.org/) -->
<svg
   xmlns:dc="http://purl.org/dc/elements/1.1/"
   xmlns:cc="http://web.resource.org/cc/"
   xmlns:rdf="http://www.w3.org/1999/02/22-rdf-syntax-ns#"
   xmlns:svg="http://www.w3.org/2000/svg"
   xmlns="http://www.w3.org/2000/svg"
   xmlns:sodipodi="http://sodipodi.sourceforge.net/DTD/sodipodi-0.dtd"
   xmlns:inkscape="http://www.inkscape.org/namespaces/inkscape"
   width="608.34088"
   height="600.52563"
   id="svg2"
   sodipodi:version="0.32"
   inkscape:version="0.45"
   sodipodi:docname="Fawn.svg"
   sodipodi:docbase="/home/frederik/bilder/clipart_freedo"
   inkscape:output_extension="org.inkscape.output.svg.inkscape"
   version="1.0"
   sodipodi:modified="true">
  <defs
     id="defs4" />
  <sodipodi:namedview
     id="base"
     pagecolor="#ffffff"
     bordercolor="#666666"
     borderopacity="1.0"
     inkscape:pageopacity="0.0"
     inkscape:pageshadow="2"
     inkscape:zoom="0.69842875"
     inkscape:cx="372.04724"
     inkscape:cy="525.4652"
     inkscape:document-units="px"
     inkscape:current-layer="layer1"
     inkscape:window-width="1280"
     inkscape:window-height="951"
     inkscape:window-x="0"
     inkscape:window-y="24" />
  <metadata
     id="metadata7">
    <rdf:RDF>
      <cc:Work
         rdf:about="">
        <dc:format>image/svg+xml</dc:format>
        <dc:type
           rdf:resource="http://purl.org/dc/dcmitype/StillImage" />
        <dc:title>Fawn</dc:title>
        <dc:date>2007-03-03</dc:date>
        <dc:creator>
          <cc:Agent>
            <dc:title>Frederik Elwert</dc:title>
          </cc:Agent>
        </dc:creator>
        <dc:relation>http://www.sbac.edu/~tpl/clipart/Animals%20and%20Insects/fawn%2002.jpg</dc:relation>
        <dc:subject>
          <rdf:Bag>
            <rdf:li>fawn</rdf:li>
            <rdf:li>animal</rdf:li>
            <rdf:li>mammal</rdf:li>
            <rdf:li>deer</rdf:li>
          </rdf:Bag>
        </dc:subject>
        <cc:license
           rdf:resource="http://web.resource.org/cc/PublicDomain" />
        <dc:description>A vectorized version of &lt;http://www.sbac.edu/~tpl/clipart/Animals%20and%20Insects/fawn%2002.jpg&gt;</dc:description>
        <dc:contributor>
          <cc:Agent>
            <dc:title>Frederik Elwert, David Stanley</dc:title>
          </cc:Agent>
        </dc:contributor>
      </cc:Work>
      <cc:License
         rdf:about="http://web.resource.org/cc/PublicDomain">
        <cc:permits
           rdf:resource="http://web.resource.org/cc/Reproduction" />
        <cc:permits
           rdf:resource="http://web.resource.org/cc/Distribution" />
        <cc:permits
           rdf:resource="http://web.resource.org/cc/DerivativeWorks" />
      </cc:License>
    </rdf:RDF>
  </metadata>
  <g
     inkscape:label="Ebene 1"
     inkscape:groupmode="layer"
     id="layer1"
     style="display:inline"
     transform="translate(-67.843174,-226.15255)">
    <g
       id="g5205"
       transform="translate(51.31753,1013.2623)">
      <path
         id="path2284"
         d="M 252.0625,-787.09375 C 250.81629,-787.01611 249.4527,-786.61261 247.9375,-785.90625 C 244.29186,-784.20669 230.75,-771.37605 230.75,-769.625 C 230.75,-769.1337 230.14652,-768.13303 229.4375,-767.40625 C 228.7285,-766.67946 222.18226,-758.21873 214.875,-748.59375 C 207.56773,-738.96875 198.12747,-726.9902 193.90625,-722 C 189.68502,-717.00979 185.63104,-712.0302 184.875,-710.90625 C 183.75503,-709.24131 181.9951,-708.72796 175.375,-708.1875 C 170.90604,-707.82264 163.2,-706.43584 158.25,-705.09375 C 153.3,-703.75166 148.125,-702.40449 146.75,-702.125 C 145.375,-701.84548 141.775,-699.72012 138.75,-697.375 C 133.96231,-693.66336 132.60245,-693.10049 128.25,-693.09375 C 121.14589,-693.08273 115.89253,-696.17544 104.65625,-707.0625 L 95.09375,-716.34375 L 83.375,-719.0625 C 69.49927,-722.28924 67.612093,-722.14598 49.75,-716.375 C 31.984622,-710.63529 19.284435,-704.56742 17.375,-700.875 C 15.821869,-697.87158 16.461572,-691.83436 18.78125,-687.5 C 19.750383,-685.68915 32.327054,-675.83994 36.34375,-673.75 C 39.517285,-672.09877 46.230215,-666.33836 56.34375,-656.5625 C 68.29599,-645.00933 73.076703,-642.59373 83.84375,-642.59375 C 88.33391,-642.59375 96.540199,-643.30459 102.09375,-644.1875 C 115.31957,-646.29019 120.89853,-645.74243 124.875,-641.96875 C 128.53962,-638.49103 133.29534,-629.46255 134.3125,-624.03125 C 135.44239,-617.99801 137.09701,-614.67717 143.3125,-606.03125 C 146.45856,-601.65498 151.85695,-593.73657 155.3125,-588.4375 C 162.48127,-577.44418 167.71817,-572.53793 173.90625,-571.03125 C 178.08579,-570.01361 178.24497,-569.84157 178.90625,-565.21875 C 179.65155,-560.00845 180.80314,-557.91429 187.65625,-549.40625 C 193.19588,-542.52888 196.26199,-538.26491 196.09375,-537.59375 C 195.82642,-536.5273 200.4141,-530.96654 206.875,-524.53125 C 212.27625,-519.15139 215.02154,-517.28554 220.59375,-515.15625 C 227.63666,-512.465 232.16472,-508.54922 240.25,-498.25 C 241.9,-496.1482 244.34037,-493.05788 245.6875,-491.375 C 247.03464,-489.6921 250.9875,-487.03068 254.46875,-485.46875 C 262.18124,-482.00838 266.49331,-478.83618 271.25,-473.03125 L 274.875,-468.59375 L 272.84375,-456.84375 C 270.35162,-442.25435 267.33281,-432.90511 259.84375,-416.71875 C 251.75408,-399.23428 249.09689,-390.34443 247.25,-374.59375 C 243.14632,-339.59665 238.72608,-315.80907 233.28125,-299.1875 C 231.32629,-293.21954 229.75,-287.84217 229.75,-287.25 C 229.75,-284.78834 220.43296,-267.27568 216,-261.40625 C 205.8167,-247.92309 200.42961,-236.51494 200.90625,-229.4375 C 201.07154,-226.98322 199.7538,-223.4595 196.21875,-216.84375 C 193.5227,-211.79813 191.63257,-207.33618 192.03125,-206.9375 C 192.42993,-206.53882 194.3445,-206.98266 196.28125,-207.90625 C 200.96155,-210.13813 201.56411,-210.04472 201,-207.09375 C 200.39071,-203.90645 201.15462,-203.93284 211.46875,-207.46875 C 221.57985,-210.93504 227.75,-214.96143 227.75,-218.125 C 227.75,-220.40239 232.49311,-228.59375 233.8125,-228.59375 C 234.92495,-228.59375 236.74584,-233.84926 236.59375,-236.59375 C 236.35649,-240.8754 236.68273,-241.59375 238.8125,-241.59375 C 243.15712,-241.59375 244.66212,-243.47954 247.28125,-252.34375 C 248.69972,-257.14443 251.45719,-266.42363 253.4375,-272.96875 C 255.41781,-279.51388 257.15043,-285.81388 257.28125,-286.96875 C 258.15456,-294.6789 277.22904,-336.64528 295.0625,-370.09375 C 299.16784,-377.79375 306.72681,-393.21521 311.875,-404.375 L 321.25,-424.65625 L 322.84375,-413.375 C 323.73356,-407.16522 325.18706,-399.39376 326.0625,-396.09375 C 326.93795,-392.79375 327.5973,-389.19376 327.53125,-388.09375 C 327.46519,-386.99375 328.57498,-381.81876 330,-376.59375 C 333.79104,-362.69348 337.46399,-341.07389 338.75,-325.09375 C 339.69734,-313.32218 339.64143,-309.27794 338.3125,-299.75 C 337.44315,-293.51696 336.91646,-288.10675 337.15625,-287.71875 C 337.39604,-287.33077 337.09689,-283.53502 336.5,-279.28125 C 335.66053,-273.2988 335.72238,-271.02209 336.6875,-269.21875 C 337.80444,-267.13173 337.4016,-265.92909 332.84375,-257.84375 C 330.04345,-252.87622 327.75001,-248.49332 327.75,-248.09375 C 327.75,-247.27617 332.25271,-247.88645 335.09375,-249.09375 C 336.67068,-249.76387 336.85844,-249.56859 336.28125,-247.75 C 335.73626,-246.03287 336.01236,-245.59375 337.625,-245.59375 C 340.46296,-245.59375 344.32228,-247.38788 351.0625,-251.875 C 358.30584,-256.69705 360.9252,-260.68338 360.125,-265.6875 C 359.45787,-269.85956 360.57734,-271.08779 365.1875,-271.09375 C 367.76923,-271.09709 368.37493,-271.67078 369.90625,-275.59375 C 372.31903,-281.77485 371.6456,-290.56697 367.375,-308.59375 C 362.43253,-329.45661 361.83888,-336.51053 363.125,-358.09375 C 364.14464,-375.20504 365.57427,-386.36077 368.46875,-400.09375 C 370.65919,-410.48642 371.01825,-415.1075 371.28125,-434.59375 C 371.44828,-446.96875 371.16986,-458.71623 370.65625,-460.71875 C 369.12086,-466.70512 372.58356,-480.57873 378.5625,-492.375 C 380.84278,-496.87394 381.58399,-497.56396 383.5,-497.09375 C 385.43652,-496.6185 385.75001,-496.95127 385.75,-499.40625 C 385.75,-503.63764 386.65028,-503.86028 390.40625,-500.5625 C 394.64712,-496.83897 395.97943,-496.78399 395.125,-500.34375 L 394.46875,-503.09375 L 397.34375,-500.59375 C 398.93381,-499.22434 400.83293,-497.42435 401.5625,-496.59375 C 402.67871,-495.32298 402.77968,-495.8635 402.1875,-499.9375 L 401.5,-504.78125 L 404.5625,-503.1875 C 408.51534,-501.14341 408.75001,-501.14607 408.75,-503.71875 C 408.75,-505.44712 409.34978,-505.00586 411.90625,-501.46875 C 416.19998,-495.52798 425.05492,-487.13726 431.75,-482.625 C 445.9894,-473.02816 475.28885,-455.85026 493.59375,-446.375 C 510.88913,-437.42229 519.89369,-432.51483 523.25,-430.21875 C 530.01014,-425.59402 538.24347,-417.73314 542.40625,-411.90625 C 548.10731,-403.92609 550.99835,-396.71317 553.90625,-383.09375 C 555.94735,-373.53418 556.24998,-369.34385 556.25,-351.09375 C 556.25,-330.40624 556.18677,-329.76639 551.9375,-308.09375 C 549.56508,-295.99375 545.41714,-276.64376 542.71875,-265.09375 C 534.74668,-230.97055 533.40508,-223.00778 534.75,-217.65625 C 535.38088,-215.14592 536.48454,-212.41875 537.21875,-211.59375 C 538.35382,-210.31831 537.89394,-209.04579 534.03125,-203.09375 C 531.53272,-199.24375 528.08633,-194.51784 526.40625,-192.59375 C 523.86907,-189.68812 523.66309,-189.01951 525.0625,-188.75 C 525.98919,-188.57154 529.24033,-189.38179 532.3125,-190.53125 L 537.90625,-192.625 L 537.25,-189.59375 C 536.83581,-187.70799 536.98904,-186.59375 537.65625,-186.59375 C 540.42972,-186.59375 558.66744,-193.02954 562,-195.1875 C 565.76158,-197.62326 571.74998,-204.90036 571.75,-207.03125 C 571.75,-207.5888 570.55653,-207.86477 568.125,-207.875 C 568.05732,-210.56363 568.39403,-214.49636 572.78125,-214 C 577.8046,-213.43167 579.12665,-213.62764 580.78125,-215.125 C 583.74021,-217.80283 585.74998,-225.92254 585.75,-235.21875 C 585.75,-239.76147 586.19998,-243.75383 586.75,-244.09375 C 587.31716,-244.44427 587.74998,-243.60761 587.75,-242.15625 C 587.75,-238.97162 590.36343,-238.7332 594,-241.59375 C 595.39842,-242.69375 596.86986,-243.59375 597.25,-243.59375 C 599.33077,-243.59375 604.87754,-247.10249 606.40625,-249.40625 C 608.05504,-251.89097 608.49723,-254.041 610.28125,-267.09375 C 610.79298,-270.83782 611.81623,-272.97291 614.3125,-275.59375 C 618.80578,-280.31132 619.25797,-284.13572 617.78125,-304.875 C 616.51391,-322.67339 616.5883,-324.48357 620.15625,-366.59375 C 627.07019,-448.1942 626.67947,-461.58868 616.9375,-475.53125 C 613.108,-481.01199 606.79338,-485.99354 598,-490.53125 C 579.50588,-500.07481 569.10309,-508.19566 565.4375,-515.9375 C 560.93324,-525.45063 560.11989,-534.27332 562.0625,-552.3125 C 564.24882,-572.61472 564.19299,-579.53841 561.78125,-588.65625 L 559.8125,-596.09375 L 563.03125,-600.84375 C 564.8,-603.45518 566.55734,-605.59269 566.9375,-605.59375 C 567.31763,-605.59481 568.00648,-603.68123 568.46875,-601.34375 C 568.93101,-599.00625 569.72327,-597.09373 570.25,-597.09375 C 570.77674,-597.09375 572.76077,-601.56875 574.625,-607.0625 C 578.25426,-617.75759 578.22805,-617.02967 575.09375,-631.84375 C 574.41664,-635.04414 576.05729,-635.51577 578.90625,-632.9375 C 579.91206,-632.02726 580.74998,-631.59891 580.75,-632 C 580.75,-633.66819 568.94345,-644.95265 565.25,-646.8125 C 563.05,-647.92034 559.0322,-650.39969 556.34375,-652.3125 C 552.96532,-654.71624 551.50032,-658.2945 549.96875,-659.1875 C 548.65899,-662.52305 545.42535,-668.55462 543.9375,-670 C 534.19396,-679.46526 515.47329,-687.65862 495.75,-691.0625 C 482.38928,-693.36831 454.94447,-694.12864 440.25,-692.625 C 424.51167,-691.01458 408.74582,-687.08558 374.75,-676.28125 C 353.56096,-669.5471 340.57216,-666.0752 331.25,-664.65625 C 319.50096,-662.86789 304.01078,-661.59373 294.34375,-661.59375 C 283.56171,-661.59375 275.34823,-659.67159 267.78125,-655.40625 C 259.1145,-650.52099 252.29763,-648.59373 243.8125,-648.59375 C 238.00598,-648.59375 235.2602,-649.08077 232.21875,-650.6875 C 224.50778,-654.7611 224.01441,-655.66147 223.5,-666.40625 C 223.24505,-671.73157 222.69116,-676.86684 222.28125,-677.8125 C 221.23256,-680.23184 226.49258,-684.78994 235.5625,-689.34375 C 254.49729,-698.85048 259.75803,-710.46307 253.78125,-729.59375 C 252.49252,-733.71875 251.47283,-737.95383 251.53125,-739 C 251.58968,-740.04616 254.00987,-746.34615 256.90625,-753 C 261.57741,-763.73108 262.18808,-765.88458 262.21875,-772.09375 C 262.24914,-778.24784 261.89434,-779.53862 259.4375,-782.75 C 257.03716,-785.88753 254.80415,-787.26456 252.0625,-787.09375 z "
         style="fill:#ffffff;fill-opacity:1;display:inline" />
      <path
         style="fill:#ae4401"
         d="M 302.90625,227.84375 C 291.5939,231.80358 285.41753,243.67166 277.875,252.40625 C 264.19742,270.16021 251.09952,288.44096 235.84375,304.6875 C 227.31258,307.97744 217.45111,306.35776 208.9375,310.21875 C 201.18054,312.10425 193.05601,314.13361 187.5,320.3125 C 177.22306,324.66833 166.02797,318.37242 158.625,311.28125 C 151.68573,305.3971 146.00451,296.76321 136.0625,296.03125 C 126.58899,293.52295 116.74221,293.03382 107.5,296.5625 C 95.312076,300.64927 82.278565,304.09419 71.5625,311.40625 C 65.845581,316.9126 71.16228,325.73867 76.6875,329.21875 C 88.97363,338.71411 102.16643,347.22337 112.59375,358.9375 C 119.94001,366.4191 130.27856,371.77539 141,369.125 C 151.33397,368.69267 161.93969,364.54543 172.25,366.78125 C 182.97291,371.26168 185.76028,383.70049 188.65625,393.75 C 196.82541,408.15448 206.22494,422.15461 216.59375,434.875 C 219.76626,439.9049 226.60258,439.16452 230.125,443.375 C 230.70668,445.21254 231.3301,447.06275 232,448.875 C 231.74282,448.18212 231.625,447.59551 231.625,447.125 C 231.625,443.57249 234.26511,444.01643 238.09375,448.4375 C 239.87988,450.49999 244.75414,454.27239 248.9375,456.84375 C 254.25374,460.11145 258.23948,463.57358 262.125,468.34375 C 269.34901,477.21249 276.69256,483.01868 288.5625,489.1875 C 299.08625,494.6567 308.37224,501.83426 314.53125,509.28125 C 319.4549,515.23451 326.0625,528.19973 326.0625,531.90625 C 326.06251,535.10014 324.60472,536.43585 322.34375,533.9375 C 321.46811,532.9699 317.69709,531.43984 314.5,529.84375 C 310.64545,527.91945 305.61047,525.60319 300.96875,520.65625 C 294.54928,513.81465 289.5546,508.80542 285.09375,504.71875 C 291.152,510.98265 295.84752,518.95975 302.65625,524.375 C 311.66207,528.23596 319.80047,533.5265 326.15625,541.1875 C 328.48667,545.83081 326.17512,552.24412 325.75,557.59375 C 322.23899,579.89471 310.54635,599.52997 303.40625,620.65625 C 298.26854,643.17893 298.29241,666.49064 292.59375,688.96875 C 290.17382,701.54149 286.46184,713.71401 282.75,725.8125 C 280.47994,735.1806 274.3072,743.2918 269.53125,751.625 C 262.37599,761.90407 253.69262,773.03077 253.5625,786.25 C 252.03652,792.68604 247.75685,798.71489 245.28125,804.40625 C 248.0763,803.80121 252.73714,799.7839 254,804.46875 C 253.05797,809.08329 258.31585,805.28578 260.6875,804.875 C 266.53978,802.14927 274.55173,800.43931 277.875,794.59375 C 277.2747,787.12392 287.62511,783.84975 285.875,776.1875 C 285.21825,772.18176 288.60362,769.12891 292.4375,769.46875 C 296.28272,767.19917 295.64693,761.17091 297.78125,757.59375 C 304.19158,737.35064 308.61259,716.49219 317.875,697.25 C 333.56446,661.43778 353.7697,627.81421 369.125,591.8125 C 371.43272,587.4489 375.03298,575.6519 374.625,586.9375 C 374.80215,600.24749 378.78298,612.92655 380.5625,625.9375 C 386.57849,651.36378 392.98439,677.37466 391.4375,703.84375 C 391.70028,717.01813 388.78992,730.20605 389.71875,743.3125 C 392.01979,750.07301 385.10929,755.70303 382.65625,761.4375 C 381.00595,763.08889 381.20062,764.20095 383.5,763.09375 C 385.97758,761.04291 391.04516,761.68544 389.625,765.78125 C 390.83924,766.49376 394.64937,763.72361 396.75,762.875 C 401.97935,759.44483 409.05122,755.54255 410.40625,749.21875 C 406.42254,745.05857 412.16513,739.86705 416.65625,740.34375 C 421.81094,738.682 419.84771,731.15237 420.53125,727.125 C 420.08415,708.45317 411.66805,690.89753 412.34375,672.09375 C 412.12716,648.04245 415.51839,624.23172 420.28125,600.71875 C 421.76996,587.45842 419.96933,573.81538 421.46875,560.5625 C 419.98344,550.95306 419.61447,540.93793 423.4375,531.78125 C 426.35604,526.00117 427.0985,517.01179 433.9375,514.4375 C 437.46757,515.22335 433.78528,510.21996 436.5625,508.9375 C 439.78165,506.53741 443.07191,512.12176 444.65625,512.5 C 444.26507,507.45853 449.96408,510.0174 451.53125,512.71875 C 450.07516,509.98029 453.32077,506.06829 456.46875,508.15625 C 458.44998,509.61324 459.52786,509.62364 461.5625,508.65625 C 466.94381,510.561 468.86648,517.40564 473.53125,520.5625 C 490.7173,535.00016 511.25792,545.76294 530.65625,557.125 C 551.85599,569.78023 577.1558,577.92832 593.28125,597.5625 C 609.39432,618.5722 609.71116,647.10309 609.6875,672.65625 C 607.67657,695.61319 602.16692,718.37833 597.40625,740.9375 C 593.95709,758.3274 588.3247,775.32245 586.96875,793.03125 C 586.27335,797.51279 591.92348,800.42388 591.6875,803.9375 C 587.44989,810.16579 583.00939,816.42899 578.84375,822.59375 C 582.33594,822.17543 588.01993,817.18244 590.625,821.59375 C 591.02248,823.14763 588.59998,825.58313 591.625,824.25 C 601.45108,821.18673 612.75519,819.09988 618.9375,809.90625 C 620.47767,808.16441 621.75764,806.05986 618.4375,807.28125 C 615.08171,808.83122 609.90283,804.57201 614.03125,802 C 617.47269,802.55699 615.04828,797.90185 618.21875,797.34375 C 623.43811,796.44528 631.07478,800.27688 633.125,793.1875 C 636.08917,785.80992 634.26111,777.54443 635.875,769.9375 C 638.29867,765.93824 639.62157,771.3024 641.125,772.375 C 644.18911,769.62625 647.82983,768.06257 651.5,766.5625 C 655.67156,764.29824 659.24161,760.45653 658.53125,755.34375 C 659.31179,750.93773 660.32017,746.70595 660.3125,742.15625 C 661.90487,736.24313 669.75573,733.11267 668.53125,726.0625 C 667.15356,705.66222 665.9915,685.20234 668.375,664.8125 C 671.15048,636.33949 672.88417,607.75054 674.875,579.21875 C 675.63626,562.56931 674.54105,543.53271 660.5625,532.1875 C 646.28872,520.05555 624.72053,515.99258 615.40625,498.53125 C 610.20174,487.11956 609.07993,473.97855 611.78125,461.78125 C 613.51015,447.47139 613.81448,432.74318 610.46875,418.75 C 609.71599,411.52462 615.3868,408.3383 619.875,403.9375 C 620.11972,407.45262 620.56741,409.83886 621.4375,413.28125 C 626.87774,404.29107 627.87529,393.78204 625.5625,383.65625 C 624.28084,380.39693 627.31385,376.92303 623.96875,375 C 617.42934,367.03542 605.99989,364.81659 600.125,356.4375 C 597.88899,346.66832 590.05232,340.03601 581.53125,335.78125 C 562.9017,325.27151 541.44227,321.21908 520.125,322.21875 C 501.87801,322.50667 483.16362,320.66333 465.71875,327 C 430.51556,335.57064 396.80088,351.7811 360.0625,352.3125 C 345.79721,353.0959 330.68587,352.16103 318.21875,360.3125 C 305.40185,366.84994 288.07484,370.35622 276.125,360.0625 C 271.77806,357.55306 275.1083,351.23131 273.84375,346.96875 C 274.1233,341.05134 269.26489,333.24839 275.53125,328.90625 C 285.8738,321.16387 301.35471,316.78323 305.09375,303.0625 C 308.47394,292.59572 301.11752,282.80308 301.34375,272.40625 C 304.58942,260.30399 314.72476,249.04755 311.3125,235.78125 C 310.14993,232.29388 307.13896,227.51835 302.90625,227.84375 z M 285.09375,504.71875 C 283.43391,503.00257 281.69031,501.39694 279.75,500.03125 C 281.46552,501.44915 283.24232,503.02261 285.09375,504.71875 z M 279.75,500.03125 C 275.81361,496.77778 272.05838,494.06859 267.8125,491.28125 C 257.86906,484.75355 256.15922,482.57421 251.1875,475.25 C 248.1625,470.79364 242.70625,462.2032 238.71875,458.09375 C 234.7927,454.04762 232.77153,450.95364 232,448.875 C 233.63309,453.29293 235.6838,457.53353 239.0625,460.9375 C 249.26315,473.98756 257.21499,490.62559 273.75,496.84375 C 275.9529,497.66587 277.92124,498.74407 279.75,500.03125 z M 293.71875,240.21875 C 297.46164,240.24322 289.09248,267.55164 288.8125,272.03125 C 288.46116,277.65272 294.0625,287.8318 294.0625,292.0625 C 294.0625,298.38665 290.53494,311.3803 271.5625,319.8125 C 272.59501,314.16952 274.14858,267.65107 288.4375,247.4375 C 291.36352,243.29826 292.76468,240.21251 293.71875,240.21875 z M 118.71875,297.03125 C 131.40865,296.93002 148.03125,306.875 148.03125,306.875 L 170.625,345.59375 C 156.1698,349.7238 149.59059,345.62087 141.1875,341.46875 C 130.21705,336.04805 134.66362,323.25871 126.875,317.84375 C 115.43026,309.88691 91.37152,310.73794 90.5,309.71875 C 89.448897,308.48956 104.23927,304.18281 109.4375,299.90625 C 111.92435,297.86034 115.16558,297.05959 118.71875,297.03125 z M 485.1875,335.4375 C 488.01302,335.32431 491.0625,336.85557 491.0625,338.78125 C 491.06251,340.20505 490.37091,340.67245 488.3125,340.625 C 482.07685,340.48128 478.91208,337.40907 483.3125,335.78125 C 483.90045,335.56375 484.53546,335.46362 485.1875,335.4375 z M 472.34375,335.53125 C 474.53612,335.52559 477.0625,337.0219 477.0625,339.28125 C 477.06251,341.11431 476.5186,341.6875 474.75,341.6875 C 471.49731,341.68749 468.60458,339.32017 469.375,337.3125 C 469.84882,336.07774 471.02833,335.53464 472.34375,335.53125 z M 462.46875,338.5 C 465.84672,338.55418 467.34803,339.77777 466.53125,341.90625 C 465.76005,343.91595 461.51301,344.72195 459.5,343.25 C 457.612,341.86945 458.55341,338.73217 460.90625,338.5625 C 461.46489,338.52222 461.98618,338.49226 462.46875,338.5 z M 521.15625,338.6875 C 524.71872,338.68749 523.3057,346.80003 519.4375,348.5625 C 516.14313,350.06351 514.55721,349.9821 513.09375,348.21875 C 512.11131,347.03498 512.26419,346.07053 513.96875,343.3125 C 516.15967,339.76746 517.86158,338.6875 521.15625,338.6875 z M 545.21875,338.6875 C 548.21453,338.68749 550.46991,341.47245 549.5,344 C 548.79078,345.8482 546.41389,346.43723 542.5625,345.71875 C 536.68993,344.62321 538.93487,338.6875 545.21875,338.6875 z M 449.4375,342.3125 C 451.49071,342.18459 453.0625,343.06424 453.0625,344.625 C 453.06251,346.5795 449.4389,348.48205 446.8125,347.90625 C 444.30814,347.35721 444.63893,343.75871 447.28125,342.78125 C 448.03776,342.5014 448.7531,342.35514 449.4375,342.3125 z M 557.9375,343.28125 C 558.81225,343.24545 559.74085,343.35135 560.625,343.6875 C 562.66275,344.46227 563.12582,345.25767 562.875,347.4375 C 562.61321,349.71244 562.0447,350.21437 559.5625,350.34375 C 554.84057,350.58987 553.0625,349.72574 553.0625,347.25 C 553.06251,344.99168 555.31324,343.38866 557.9375,343.28125 z M 437.3125,345.3125 C 438.02832,345.31476 438.6904,345.46989 439.1875,345.78125 C 440.33383,346.49925 440.31617,347.08086 439.03125,349.40625 C 436.35704,354.24592 431.22237,353.23387 432.21875,348.0625 C 432.51159,346.54262 435.16505,345.30573 437.3125,345.3125 z M 573.09375,346.84375 C 575.08873,346.74279 575.98662,347.17412 577.25,348.4375 L 579.28125,350.46875 L 577.25,352.5 C 576.13051,353.61949 574.70473,355.45211 574.09375,356.59375 C 572.85743,358.90381 569.81174,359.35926 568.34375,357.4375 C 566.62413,355.18631 564.86685,349.80571 565.5,348.78125 C 565.84079,348.22985 568.17335,347.47077 570.6875,347.09375 C 571.64211,346.9506 572.42876,346.8774 573.09375,346.84375 z M 487.96875,347.15625 C 488.77832,347.16331 489.54895,347.40897 490.375,347.84375 C 495.41315,350.49548 495.3284,353.991 490.1875,355.53125 C 484.82479,357.13795 482.63308,356.95906 480.71875,354.84375 C 479.17523,353.13818 479.24295,352.87355 481.8125,350.5 C 484.3037,348.19881 486.1877,347.14073 487.96875,347.15625 z M 423.6875,349.9375 C 424.06776,349.91921 424.48473,349.98129 424.9375,350.125 C 427.47449,350.93021 427.84843,355.14933 425.46875,356.0625 C 422.46894,357.21363 421.04709,356.70232 421.0625,354.4375 C 421.08172,351.61291 422.03971,350.01676 423.6875,349.9375 z M 464.21875,351.90625 C 464.75987,351.86982 465.26839,351.92093 465.71875,352.09375 C 467.99907,352.96878 467.25695,357.37597 464.4375,359.59375 C 459.87898,363.1795 457.1019,361.57099 458.46875,356.125 C 459.00394,353.9927 461.87389,352.06412 464.21875,351.90625 z M 414.21875,353.6875 C 416.3608,353.68749 416.77143,357.54107 414.84375,359.46875 C 413.15987,361.15262 410.10906,360.98774 409.40625,359.15625 C 408.66318,357.21986 411.7715,353.6875 414.21875,353.6875 z M 583.9375,354.6875 C 586.24737,354.68749 588.78395,355.45128 590.15625,356.5625 L 592.46875,358.40625 L 589.5,359.90625 C 587.34583,360.99568 585.82529,361.1612 583.8125,360.46875 C 582.29657,359.94723 581.2751,359.12127 581.5625,358.65625 C 581.84992,358.19123 581.62147,357.53296 581.0625,357.1875 C 578.88789,355.84351 580.2246,354.6875 583.9375,354.6875 z M 545.1875,356.71875 C 548.28256,356.68108 557.0625,365.41335 557.0625,368.53125 C 557.06251,369.84814 555.27158,371.50047 551.5625,373.59375 C 541.42707,379.31384 537.57383,376.91924 538.71875,365.6875 C 539.4377,358.63444 540.80179,356.77213 545.1875,356.71875 z M 261.90625,357.8125 C 262.45624,357.81249 264.0625,360.1375 264.0625,360.6875 C 264.0625,361.23749 262.6125,362.96875 262.0625,362.96875 C 261.51251,362.96876 259.0625,361.2375 259.0625,360.6875 C 259.06251,360.13749 261.35625,357.8125 261.90625,357.8125 z M 404.15625,359.09375 C 405.35338,359.06051 406.0625,359.91465 406.0625,361.59375 C 406.06251,364.36372 402.91608,366.73972 400.8125,365.5625 C 398.35456,364.18697 398.61834,362.01314 401.5,360.125 C 402.53001,359.4501 403.43797,359.1137 404.15625,359.09375 z M 394.5625,360.6875 C 396.3569,360.68749 396.53259,363.77991 394.84375,365.46875 C 393.43334,366.87915 392.07613,366.97771 390.1875,365.78125 C 389.08307,365.08159 389.22761,364.49114 390.9375,362.78125 C 392.1024,361.61635 393.7375,360.6875 394.5625,360.6875 z M 599.34375,360.6875 L 610.375,367.21875 C 620.7055,372.4699 624.5674,375.71875 620.03125,375.71875 C 618.27162,375.71875 616.76077,375.02076 620.6875,379.21875 C 625.10162,383.93781 625.75531,385.70414 625.75,391.21875 C 625.74356,397.92649 622.39827,405.67668 621,404.8125 C 620.47076,404.48542 619.19854,402.66334 619.53125,402.125 C 619.86395,401.58667 619.70524,401.14185 619.375,400.28125 C 618.43795,397.83927 617.41365,399.03459 613.5625,406.625 C 610.25294,413.14794 611.39669,414.21929 609.59375,411.90625 C 608.84719,410.9485 608.7843,411.36856 608.96875,412.5625 C 609.42682,415.5276 609.67606,418.26835 608.5625,420.84375 C 607.7037,422.83002 606.27888,425.6125 605.9375,427.8125 C 605.37019,431.46857 604.01417,432.63321 603.5,430.15625 C 602.5215,425.44227 602.17819,413.5228 603.90625,408.5625 C 607.40084,398.53134 606.4215,394.03831 599.84375,391.21875 C 595.95582,389.55218 594.54475,387.1929 592.71875,382.3125 C 591.57909,379.26646 590.77252,375.77183 590.40625,374.3125 L 590.78125,371.4375 L 593.5625,373.28125 L 596.3125,375.09375 L 595.5625,372.625 C 595.13987,371.27699 594.52931,369.51101 594.21875,368.6875 C 593.76595,367.48679 594.18963,367.53684 596.375,368.96875 L 599.09375,370.75 L 598.71875,366.46875 L 599.34375,360.6875 z M 571.8125,360.96875 C 573.72047,360.99624 577.19066,363.77826 576.875,365.375 C 576.45904,367.47919 572.63077,368.84952 571.1875,367.40625 C 569.77439,365.99317 569.70915,362.01198 571.09375,361.15625 C 571.28705,361.03678 571.53993,360.96482 571.8125,360.96875 z M 490.65625,362.6875 C 492.33751,362.68749 493.0625,363.23253 493.0625,364.5625 C 493.06251,366.85703 491.02507,367.8182 488.78125,366.5625 C 486.49708,365.28422 487.75237,362.6875 490.65625,362.6875 z M 466.1875,363.6875 C 467.36225,363.68749 468.05403,364.21209 467.8125,364.9375 C 467.33702,366.36549 464.78742,367.06867 463.78125,366.0625 C 462.69208,364.97333 464.00059,363.6875 466.1875,363.6875 z M 385.6875,364.6875 C 387.59462,364.68749 387.4105,368.31738 385.46875,369.0625 C 383.38632,369.8616 383.2851,369.84476 382.53125,368.625 C 381.72462,367.31984 383.84184,364.6875 385.6875,364.6875 z M 561.34375,364.6875 C 562.78472,364.68749 565.0625,366.62878 565.0625,367.875 C 565.06251,368.31501 563.9375,368.6875 562.5625,368.6875 C 560.72918,368.68749 560.0625,368.15417 560.0625,366.6875 C 560.06251,365.58749 560.62875,364.6875 561.34375,364.6875 z M 348.1875,365.96875 C 349.49872,366.00734 350.04713,367.01954 349,368.28125 C 347.71537,369.82914 346.74006,370.02132 345.71875,369 C 344.62215,367.90342 344.96964,366.92847 346.65625,366.28125 C 347.23764,366.05815 347.75043,365.95589 348.1875,365.96875 z M 340.75,366.8125 C 341.54128,366.79467 342.0625,367.27892 342.0625,368.09375 C 342.06251,369.02138 341.19708,369.6875 339.96875,369.6875 C 337.53169,369.68749 337.89748,367.3303 340.40625,366.84375 C 340.52959,366.81983 340.63696,366.81505 340.75,366.8125 z M 377.03125,366.90625 C 380.23689,366.76176 380.7037,367.45443 379,369.15625 C 378.20773,369.94764 374.93743,370.9034 371.71875,371.28125 C 366.32142,371.91485 365.88243,371.81454 366.21875,370.0625 C 366.50882,368.55137 367.88889,368.01719 372.90625,367.34375 C 374.6047,367.11578 375.9627,366.95441 377.03125,366.90625 z M 353.9375,367.03125 C 355.14573,367.00822 356.0625,367.6726 356.0625,368.75 C 356.06251,369.26753 354.9375,369.6875 353.5625,369.6875 C 350.76518,369.68749 350.21463,368.21819 352.65625,367.28125 C 353.09934,367.11122 353.53476,367.03893 353.9375,367.03125 z M 362.46875,367.875 C 364.48818,367.88726 365.21554,368.81662 364,370.28125 C 362.79015,371.73904 358.89304,372.17429 357.71875,371 C 356.3981,369.67937 357.10819,368.82951 360.03125,368.1875 C 360.9708,367.98114 361.79561,367.87091 362.46875,367.875 z M 578.4375,367.90625 C 580.05761,367.9571 582.02626,368.89849 581.5,369.75 C 580.75651,370.953 577.33778,370.95388 576.59375,369.75 C 576.2773,369.238 576.4986,368.53601 577.0625,368.1875 C 577.4189,367.96723 577.89746,367.8893 578.4375,367.90625 z M 477,368.1875 L 479.5,371.1875 C 482.27754,374.52154 482.55419,375.90436 481.03125,378.75 C 480.46189,379.81383 479.4494,380.61366 478.78125,380.53125 C 472.36505,379.73989 472.0625,379.55402 472.0625,376.65625 C 472.06251,375.02311 473.13249,372.56101 474.53125,370.96875 L 477,368.1875 z M 585.1875,369.84375 C 586.29313,369.90934 587.48984,370.42647 587.78125,371.3125 C 588.20971,372.6152 586.14218,373.57573 584.3125,372.9375 C 583.62501,372.69768 583.0625,371.84867 583.0625,371.03125 C 583.0625,370.16251 584.08187,369.77816 585.1875,369.84375 z M 517.46875,370.84375 C 517.61652,370.83689 517.73706,370.84844 517.875,370.875 C 520.42442,371.36598 520.47525,374.61321 517.96875,377.28125 C 515.01646,380.42381 512.0625,380.46799 512.0625,377.375 C 512.06251,374.67551 515.25223,370.94666 517.46875,370.84375 z M 329.125,370.96875 C 329.4372,370.92861 329.7326,370.97905 329.96875,371.125 C 330.51881,371.46496 330.71607,372.41136 330.40625,373.21875 C 329.78488,374.83802 327.48496,375.17269 326.625,373.78125 C 326.02523,372.81079 327.77212,371.14269 329.125,370.96875 z M 189.96875,372.8125 C 190.48629,372.81251 192.78125,374.64375 192.78125,375.46875 C 192.78124,377.01515 189.15744,378.03243 188.03125,376.90625 C 187.23232,376.10733 188.70777,372.8125 189.96875,372.8125 z M 445,375.96875 C 445.18845,375.95737 445.36585,375.96372 445.5625,375.96875 C 446.012,375.98025 446.45687,376.05069 446.9375,376.15625 C 449.99805,376.82846 451.07261,378.9378 449,380.21875 C 446.92053,381.50393 443.0574,381.38705 441.90625,380 C 440.33359,378.10506 442.17323,376.13949 445,375.96875 z M 557.09375,376.75 C 557.47942,376.73172 558.01466,376.76668 558.6875,376.84375 C 560.73315,377.07807 561.95162,378.04741 562.9375,380.1875 C 563.6976,381.83749 565.652,384.587 567.28125,386.3125 C 570.5515,389.77593 570.0111,390.83367 564.71875,391.25 C 563.05511,391.38086 561.14403,392.18174 560.5,393.0625 C 558.65971,395.57921 556.21869,394.9739 554.0625,391.4375 C 551.9542,387.97967 551.86392,387.70156 551.5625,383.4375 C 551.35881,380.5556 553.59139,379.62264 555.6875,381.71875 C 556.39608,382.42731 556.56356,381.76143 556.25,379.625 C 555.92871,377.43596 555.93673,376.80485 557.09375,376.75 z M 415.375,376.8125 C 416.62013,376.79507 417.73438,376.87046 418.375,377.03125 C 420.38327,377.53529 420.67034,378.17497 420.5,381.6875 C 420.39133,383.92846 420.04548,386.04828 419.71875,386.375 C 419.39203,386.70173 416.35256,387.05651 413,387.1875 C 407.25837,387.41183 406.86912,387.29409 405.9375,384.84375 C 404.30508,380.55013 406.18969,377.92133 411.5,377.125 C 412.74856,376.93777 414.12987,376.82993 415.375,376.8125 z M 379.53125,377.1875 C 380.23184,377.18357 380.9006,377.40484 381.21875,377.90625 C 382.51824,379.95426 382.20038,382.6875 380.65625,382.6875 C 379.87709,382.68749 379.04719,383.17094 378.84375,383.78125 C 378.3614,385.22833 376.36652,382.67128 376.625,380.9375 C 376.72749,380.24999 376.86875,379.2724 376.9375,378.78125 C 377.07391,377.80681 378.3636,377.19404 379.53125,377.1875 z M 320.0625,377.5 C 320.81735,377.45197 321.25005,377.79546 321.8125,378.5 C 322.84038,379.78755 322.66433,380.47034 320.875,382.375 C 318.01514,385.41918 312.0625,385.64954 312.0625,382.71875 C 312.06251,381.37702 313.40637,380.15169 316.3125,378.84375 C 318.22834,377.9815 319.30765,377.54803 320.0625,377.5 z M 398.59375,379.6875 C 400.12069,379.68749 400.17846,379.77363 400.5625,383.4375 C 400.82197,385.9128 398.33279,386.55154 396.3125,384.53125 C 394.86906,383.08779 396.46878,379.6875 398.59375,379.6875 z M 386.09375,382.4375 C 386.81477,382.40693 387.67782,382.55277 388.75,382.84375 C 391.82052,383.67707 391.94294,383.8966 391.75,388.4375 C 391.56936,392.68871 391.30751,393.20487 389.0625,393.4375 C 385.31075,393.82626 383.81975,392.33281 383.5,387.84375 C 383.23749,384.15834 383.93069,382.52922 386.09375,382.4375 z M 329.0625,382.6875 C 330.17362,382.68749 331.0625,383.35417 331.0625,384.1875 C 331.06251,385.02082 330.17361,385.6875 329.0625,385.6875 C 327.9514,385.68749 327.0625,385.02083 327.0625,384.1875 C 327.06251,383.35416 327.95139,382.6875 329.0625,382.6875 z M 503.46875,382.8125 C 504.00706,382.76729 504.54636,382.86395 504.96875,383.125 C 505.47203,383.43606 505.63126,384.58804 505.34375,385.6875 C 504.62915,388.42017 500.0625,388.47369 500.0625,385.75 C 500.06251,384.28606 501.85383,382.94813 503.46875,382.8125 z M 306.78125,388.15625 C 307.40976,388.20136 308.01961,388.65552 309.0625,389.5 C 311.97422,391.85776 311.21495,395.8216 307.53125,397.5 C 304.75415,398.76533 297.80374,399.085 296.71875,398 C 295.63219,396.91346 295.95649,393.16851 297.25,391.875 C 297.91,391.21501 299.2719,390.6875 300.28125,390.6875 C 301.29059,390.68749 303.18996,389.99415 304.46875,389.15625 C 305.52739,388.46261 306.15274,388.11114 306.78125,388.15625 z M 482.09375,390.125 C 482.65072,390.10689 483.26588,390.17629 483.90625,390.34375 C 486.69485,391.07298 487.2553,396.28582 484.71875,397.90625 C 483.11554,398.93043 482.79377,398.88483 480.28125,397.125 C 476.56297,394.52061 478.19498,390.25177 482.09375,390.125 z M 494.15625,391.71875 C 494.32096,391.7108 494.46497,391.74622 494.59375,391.875 C 494.97976,392.26102 495.00779,393.72439 494.65625,395.125 C 493.9546,397.92064 492.5913,398.47363 491.75,396.28125 C 491.19822,394.84334 493.00326,391.7744 494.15625,391.71875 z M 394.5,394.6875 C 395.27524,394.68749 396.24306,395.67164 396.625,396.875 C 397.13391,398.47844 396.70252,399.54699 395.0625,400.875 C 392.29897,403.11275 391.46206,403.13115 390.65625,401.03125 C 389.89564,399.04912 392.53269,394.6875 394.5,394.6875 z M 343.875,397.375 C 344.36108,397.37398 344.9319,397.42638 345.5625,397.5 C 348.91347,397.89122 349.19368,398.14777 348.75,400.46875 C 348.48075,401.87725 348.73885,404.08473 349.3125,405.34375 C 350.07828,407.02448 350.02582,408.03317 349.09375,409.15625 C 347.70298,410.83202 343.52662,411.20884 342.625,409.75 C 341.71555,408.27849 340.73882,399.9325 341.3125,398.4375 C 341.58088,397.73812 342.41675,397.37807 343.875,397.375 z M 464.96875,403.1875 L 465.03125,406.375 C 465.05359,408.13003 465.5125,409.84758 466.0625,410.1875 C 467.80528,411.26458 467.15666,417.75249 465,420.78125 C 462.49728,424.296 461.94522,424.32971 458.4375,421.3125 L 455.6875,418.96875 L 457.375,414.53125 C 458.30562,412.09447 460.40528,408.52721 462.03125,406.625 L 464.96875,403.1875 z M 569.6875,403.9375 C 570.91271,403.81235 572.01342,405.81722 572.03125,408.4375 C 572.04039,409.77763 571.45593,410.6875 570.5625,410.6875 C 569.73751,410.68749 569.01398,410.575 568.96875,410.4375 C 568.16923,408.00679 568.27665,404.66862 569.15625,404.125 C 569.33239,404.01614 569.51247,403.95538 569.6875,403.9375 z M 364.09375,404.6875 C 364.61758,404.67753 365.13051,405.00047 365.59375,405.75 C 366.68767,407.52002 367.25944,412.75343 366.625,415.28125 C 365.79834,418.57494 362.31444,418.4688 361.03125,415.09375 C 359.45878,410.95782 361.8238,404.73069 364.09375,404.6875 z M 494.375,404.78125 C 496.44166,404.83723 499.04562,405.83558 501.0625,407.46875 C 502.90453,408.96033 503.17433,409.88788 502.59375,412.53125 C 502.20404,414.30562 500.90846,416.36958 499.71875,417.125 C 496.92835,418.89682 490.1772,419.70966 487.375,418.625 C 483.1786,417.00068 482.5084,411.71153 486.5,411.6875 C 487.0775,411.68403 488.33885,410.31232 489.28125,408.65625 C 490.22364,407.00017 491.68492,405.38727 492.53125,405.0625 C 493.06104,404.8592 493.68611,404.76259 494.375,404.78125 z M 233.28125,405.28125 C 233.55049,405.25504 233.81428,405.25969 234.03125,405.28125 C 237.78774,405.65459 244.79685,410.82563 241.6875,411.8125 C 240.29832,412.25341 235.23966,417.87536 233.5625,414 C 232.69482,411.99511 231.76564,411.58641 231.71875,414.625 C 231.65372,418.8383 229.36082,416.00902 228.65625,416.59375 C 227.95169,417.17848 225.66411,420.24843 223.9375,420.59375 C 220.605,421.26026 217.81996,416.33744 218.96875,413.34375 C 219.81035,411.15058 229.24269,405.67437 233.28125,405.28125 z M 373.1875,405.6875 C 374.13627,405.66179 375.01708,406.1544 375.4375,407.25 C 376.54249,410.12951 376.07399,413.44651 374.46875,414.0625 C 372.35161,414.87492 372.41767,414.88642 370.625,413.09375 C 368.7686,411.23735 368.79954,411.48965 370.03125,408.25 C 370.64657,406.63158 371.96766,405.72056 373.1875,405.6875 z M 309.15625,409.875 C 310.17832,409.92446 310.88714,410.96556 310.40625,412.21875 C 310.09643,413.02613 309.20366,413.6875 308.4375,413.6875 C 306.83861,413.68749 306.56736,411.11155 308.0625,410.1875 C 308.43768,409.95562 308.81556,409.85851 309.15625,409.875 z M 513.125,410.6875 C 515.14843,410.63037 517.56363,411.93564 520.0625,414.5625 C 522.09529,416.69938 524.72419,418.74983 525.90625,419.125 C 528.9103,420.07843 528.59632,422.15136 524.8125,426.1875 C 521.99241,429.19566 520.74334,429.71271 515.40625,430.25 C 508.37001,430.95835 508.23573,430.82777 507.96875,422.1875 C 507.78793,416.33598 508.15812,414.46293 509.96875,412.28125 C 510.83273,411.24022 511.91094,410.72178 513.125,410.6875 z M 412.78125,414.6875 C 415.36744,414.68749 417.71504,418.52873 416.71875,421.125 C 416.00185,422.99324 411.71012,423.20337 410.34375,421.4375 C 407.44404,417.68996 408.52478,414.6875 412.78125,414.6875 z M 473.53125,419.71875 C 475.52324,419.53485 476.4292,421.5697 475.125,425 C 473.85049,428.3522 470.34953,428.61215 469.09375,425.4375 C 468.40474,423.6956 468.67609,422.7923 470.25,421.4375 C 471.50074,420.36088 472.6258,419.80234 473.53125,419.71875 z M 389.3125,420.6875 C 391.15971,420.68749 392.88199,427.37094 392.21875,431.9375 C 391.99906,433.44999 391.5322,434.6875 391.15625,434.6875 C 390.07793,434.68749 383.0625,427.21127 383.0625,426.0625 C 383.06251,424.48326 387.47697,420.6875 389.3125,420.6875 z M 426.5,421.15625 C 428.68486,421.25625 431.6401,423.99898 431.25,425.9375 C 430.83883,427.98081 425.18461,428.40336 423.3125,426.53125 C 421.92992,425.14865 423.22314,422.20293 425.625,421.28125 C 425.89282,421.17848 426.18788,421.14196 426.5,421.15625 z M 404.21875,425.84375 C 407.00763,425.78315 408.52529,428.35122 407.21875,431.21875 C 405.98115,433.93501 402.33214,434.58138 401.4375,432.25 C 400.36847,429.46411 401.52083,426.18011 403.65625,425.875 C 403.85295,425.8469 404.03282,425.84779 404.21875,425.84375 z M 554.21875,426.6875 C 556.57631,426.68749 556.57104,428.90246 554.21875,431.03125 C 552.22803,432.83283 551.69216,433.00466 550.78125,432.09375 C 549.6537,430.96622 552.37567,426.6875 554.21875,426.6875 z M 452.3125,429.0625 C 453.51025,429.00994 454.80721,430.07215 454.53125,431.5 C 454.35259,432.42448 454.16708,433.75 454.125,434.4375 C 454.04387,435.7631 451.83886,436.12011 450.71875,435 C 449.81237,434.09363 449.91365,431.47059 450.90625,429.90625 C 451.25542,429.35596 451.76807,429.08639 452.3125,429.0625 z M 376.03125,429.125 C 376.5791,429.10398 377.18199,429.14762 377.8125,429.3125 C 380.25109,429.95019 381.07994,432.38044 379.9375,435.46875 C 378.97309,438.07577 377.33798,438.26601 374.28125,436.125 C 370.6042,433.54949 372.1963,429.27213 376.03125,429.125 z M 548.75,435.71875 C 549.50645,435.65153 550.0625,436.03876 550.0625,437 C 550.06251,437.72911 548.97322,439.35652 547.65625,440.59375 C 544.67353,443.39585 543.17682,441.67062 545.5,438.125 C 546.46667,436.64967 547.77743,435.80518 548.75,435.71875 z M 466.9375,444.21875 C 468.05331,444.20612 469.0625,445.54226 469.0625,447.78125 C 469.06251,450.0225 468.60498,450.6875 467.03125,450.6875 C 464.48886,450.68749 463.56902,448.45505 465,445.78125 C 465.56951,444.71711 466.26801,444.22633 466.9375,444.21875 z M 540.0625,447.71875 C 540.14539,447.70549 540.21228,447.71301 540.28125,447.71875 C 541.1089,447.78763 540.93514,449.17075 539.5625,450.6875 C 538.56396,451.79086 537.35911,452.6875 536.875,452.6875 C 535.82525,452.68749 537.60879,449.06207 539.125,448.125 C 539.49399,447.89695 539.81382,447.75852 540.0625,447.71875 z M 477.34375,448.84375 C 477.49009,448.82416 477.63649,448.84712 477.78125,448.875 C 480.06193,449.31422 482.1421,453.65486 481.40625,456.46875 C 480.67849,459.2517 475.60744,459.55943 474.1875,456.90625 C 472.90265,454.50551 475.14869,449.13767 477.34375,448.84375 z M 502.5625,452.875 C 504.06354,452.9151 506.0941,453.48443 508.53125,454.5625 C 513.85539,456.91763 514.5111,459.44778 510.03125,460.34375 C 508.35977,460.67804 507.15284,461.44805 507.375,462.0625 C 507.59717,462.67694 507.37003,463.975 506.875,464.9375 C 506.32695,466.00306 504.85213,466.6875 503.0625,466.6875 C 500.79293,466.68749 499.75788,465.96578 498.53125,463.59375 C 497.21051,461.03971 497.15847,460.25932 498.25,458.9375 C 498.97207,458.06313 499.5625,456.42985 499.5625,455.28125 C 499.56251,453.64725 500.6326,452.82345 502.5625,452.875 z M 526.65625,458.375 C 527.79452,458.3482 528.89953,458.57167 529.65625,459.125 C 531.13468,460.20608 531.13662,460.45713 529.59375,462 C 526.82377,464.76997 521.14902,463.51966 522.34375,460.40625 C 522.81317,459.18294 524.75913,458.41966 526.65625,458.375 z M 476.53125,513.96875 C 476.84944,513.97377 477.19993,514.0093 477.5625,514.0625 C 485.97131,515.2963 499.87412,522.40302 507.25,529.21875 C 514.7924,536.18836 521.35691,539.77458 534.28125,544.09375 C 552.53345,550.19345 562.26835,555.00938 575.875,564.5625 C 592.2588,576.06546 599.09768,583.34214 604.625,595.1875 C 606.9348,600.13749 609.13386,605.7625 609.53125,607.6875 C 609.92863,609.61249 610.6116,612.875 611.03125,614.9375 C 612.18298,620.5983 608.53205,620.71386 605.875,613.71875 C 597.95894,592.87841 586.49364,582.27748 543.46875,560 C 519.0619,547.36263 492.03937,530.09851 474.96875,516.375 C 473.27677,515.01476 474.30393,513.93358 476.53125,513.96875 z "
         transform="translate(-51.31753,-1013.2623)"
         id="path9025" />
      <path
         style="fill:#923701"
         d="M 559.24497,-599.23105 C 556.95865,-598.64315 560.18879,-597.3051 559.24497,-599.23105 z M 558.05747,-593.60605 C 556.75983,-589.21235 554.63234,-583.73803 550.93453,-580.5748 C 548.64531,-580.82072 548.1138,-585.55573 547.52828,-582.07411 C 544.36566,-575.38444 541.35152,-568.19029 541.43237,-560.48848 C 540.38183,-553.27801 539.36253,-549.39603 539.40122,-540.91855 C 540.13159,-535.45011 538.90947,-530.17119 538.68247,-524.79355 C 540.96134,-519.4237 539.43552,-513.26384 542.05747,-507.8873 C 543.21735,-502.82962 547.4021,-499.59828 550.58872,-495.9498 C 555.30769,-495.17281 557.49778,-490.14888 562.15122,-489.10605 C 565.42538,-485.54517 570.13219,-483.69187 573.74497,-480.60605 C 577.72945,-479.00398 580.7399,-474.56728 585.10469,-474.09214 C 588.65269,-472.15664 588.91593,-469.78776 591.888,-467.23174 C 593.68402,-460.293 596.86332,-453.79352 600.65122,-447.60605 C 602.26237,-437.3621 602.7342,-426.61844 601.30747,-416.3248 C 600.50823,-408.44304 599.3356,-400.44408 598.27622,-392.54355 C 597.29501,-382.74517 596.5367,-372.9401 596.18247,-363.04355 C 595.06286,-355.15524 596.49952,-346.83994 593.65122,-339.35605 C 591.49103,-333.67368 590.62097,-327.7185 591.61997,-321.5748 C 592.47789,-317.04423 588.12782,-313.81106 590.05747,-309.1998 C 590.15816,-304.47325 593.5234,-299.09715 591.08872,-294.6373 C 587.16713,-291.99218 587.72639,-286.39596 587.24497,-282.1998 C 586.60102,-275.05575 589.0826,-268.29483 590.02622,-261.35605 C 592.7094,-256.30183 594.1237,-249.77349 597.99497,-245.79355 C 603.67975,-247.56948 608.42749,-253.53569 607.21372,-259.8248 C 609.10798,-265.71196 607.67294,-273.12613 613.21372,-277.3873 C 619.41872,-283.65661 616.15469,-293.27698 616.32735,-301.13457 C 612.71482,-332.74465 619.91279,-364.20919 620.62801,-395.78912 C 622.21174,-417.70623 625.44307,-440.27762 621.40122,-461.9498 C 617.72839,-475.45087 606.4667,-485.25734 594.05527,-490.68375 C 581.32396,-497.84852 565.50318,-505.2724 561.65122,-520.7623 C 558.2759,-530.90376 558.34618,-541.94395 560.43247,-552.23105 C 561.15011,-566.52527 563.60985,-581.50638 558.33872,-595.1373 L 558.15807,-594.15375 L 558.05747,-593.60605 z "
         id="path2171"
         sodipodi:nodetypes="cccccccccccccccccccccccccccccccccccc" />
      <path
         style="fill:#923701"
         d="M 344.96372,-506.79355 C 341.10466,-506.94601 335.8729,-505.20271 337.27622,-500.1998 C 337.55173,-493.47264 341.44587,-487.32937 339.90122,-480.35605 C 340.47682,-473.06392 338.78474,-465.95155 335.49497,-459.54355 C 333.01108,-454.12891 332.38517,-447.78877 328.36997,-443.16855 C 325.56575,-437.25718 321.59176,-431.22233 323.57954,-424.23463 C 324.00597,-410.02067 328.33362,-396.38506 330.40458,-382.60743 C 334.59748,-368.15028 336.97222,-351.31808 339.58872,-337.66855 C 339.75974,-336.2724 339.66664,-333.56894 340.21372,-331.91855 C 339.21477,-330.44373 340.65537,-323.01546 340.23085,-319.51269 C 340.82315,-303.27748 338.35763,-286.99152 338.08872,-270.8873 C 341.28819,-264.2123 334.3581,-258.29699 331.83872,-252.6373 C 330.94937,-251.30132 328.78299,-248.74018 331.83872,-250.04355 C 334.09126,-251.42246 339.07347,-252.45627 338.43247,-248.23105 C 337.97877,-245.93611 342.26497,-249.14509 343.49497,-249.41855 C 349.07164,-252.6711 355.84595,-256.2648 358.55747,-262.29355 C 357.39379,-266.11548 357.76279,-272.22923 362.99497,-272.54355 C 368.70881,-271.66519 369.19743,-278.82896 369.46372,-282.79355 C 370.07684,-300.95389 360.33916,-317.70106 361.40263,-336.07435 C 360.99816,-358.91525 361.75976,-382.05913 367.61997,-404.1373 C 370.23338,-420.72501 369.32528,-437.89071 369.96372,-454.60605 C 368.51676,-460.8879 367.55141,-467.28782 369.77622,-473.6373 C 367.14929,-477.41534 367.39175,-482.23487 370.18247,-485.8873 C 371.61222,-490.99985 375.08953,-494.98993 378.93247,-498.48105 C 381.49446,-500.64064 378.88624,-502.99403 376.52622,-503.23105 C 372.40192,-504.76001 367.54157,-503.4314 363.43247,-502.5748 C 357.80143,-500.10166 351.03767,-501.89223 346.05747,-504.73105 C 345.65581,-505.31771 345.46314,-506.42396 344.96372,-506.79355 z "
         id="path7153"
         sodipodi:nodetypes="cccccccccccccccccccccccccccc" />
      <path
         style="opacity:1;fill:#1a0c07"
         d="M 537.24526,-189.60119 L 537.90792,-192.61829 L 532.32211,-190.52836 C 529.24991,-189.37891 525.97809,-188.58446 525.0514,-188.76292 C 523.65198,-189.03243 523.88406,-189.68012 526.42124,-192.58575 C 528.10134,-194.50984 531.52022,-199.23409 534.01875,-203.08409 C 537.88143,-209.03613 538.36168,-210.30865 537.22661,-211.58409 C 536.49241,-212.40909 535.37554,-215.13799 534.74466,-217.64832 C 533.39977,-222.99985 534.7363,-230.96089 542.70837,-265.08409 C 545.40676,-276.63409 549.55559,-295.98409 551.92801,-308.08409 C 556.17731,-329.75672 556.2415,-330.39658 556.2415,-351.08409 C 556.2415,-369.33418 555.93395,-373.52452 553.89285,-383.08409 C 550.98492,-396.7035 548.11198,-403.91161 542.41092,-411.89177 C 538.24817,-417.71867 530.00164,-425.60939 523.2415,-430.23412 C 519.88521,-432.53021 510.89002,-437.42982 493.59464,-446.38253 C 475.28974,-455.8578 445.9809,-473.03382 431.7415,-482.63066 C 425.04641,-487.14291 416.21538,-495.54336 411.92165,-501.48413 C 409.36519,-505.02124 408.7415,-505.4625 408.7415,-503.73413 C 408.7415,-501.16145 408.51742,-501.13149 404.56458,-503.17558 L 401.48697,-504.76707 L 402.19072,-499.92558 C 402.78291,-495.85157 402.68419,-495.32348 401.56798,-496.59425 C 400.83842,-497.42484 398.94054,-499.22484 397.35048,-500.59425 L 394.45945,-503.08409 L 395.11953,-500.33409 C 395.97397,-496.77432 394.66107,-496.8378 390.4202,-500.56133 C 386.66423,-503.85912 385.7415,-503.62976 385.7415,-499.39837 C 385.7415,-496.9434 385.42802,-496.62292 383.4915,-497.09817 C 381.57548,-497.56839 380.84403,-496.86616 378.56375,-492.36722 C 372.58481,-480.57095 369.12158,-466.71142 370.65697,-460.72505 C 371.17059,-458.72252 371.45415,-446.95909 371.28712,-434.58409 C 371.02411,-415.09783 370.64466,-410.47676 368.45422,-400.08409 C 365.55974,-386.3511 364.14409,-375.19538 363.12445,-358.08409 C 361.83833,-336.50086 362.44596,-329.44695 367.38843,-308.58409 C 371.65903,-290.5573 372.33377,-281.76519 369.92099,-275.58409 C 368.38967,-271.66111 367.78469,-271.0836 365.20296,-271.08026 C 360.59281,-271.0743 359.4425,-269.85543 360.10963,-265.68337 C 360.90982,-260.67926 358.29848,-256.69683 351.05514,-251.87478 C 344.31493,-247.38767 340.46502,-245.58409 337.62706,-245.58409 C 336.01444,-245.58409 335.74452,-246.01823 336.28951,-247.73536 C 336.86671,-249.55396 336.68383,-249.76405 335.1069,-249.09393 C 332.26586,-247.88663 327.7415,-247.26601 327.7415,-248.08359 C 327.7415,-248.48316 330.03265,-252.87443 332.83295,-257.84196 C 337.3908,-265.92729 337.79363,-267.11816 336.67669,-269.20518 C 335.71158,-271.00851 335.6748,-273.28819 336.51427,-279.27064 C 337.11117,-283.5244 337.40336,-287.3222 337.16357,-287.71018 C 336.92378,-288.09817 337.43889,-293.51537 338.30824,-299.74841 C 339.63716,-309.27635 339.70944,-313.31108 338.7621,-325.08265 C 337.47607,-341.06278 333.80237,-362.68382 330.01133,-376.58409 C 328.5863,-381.80909 327.47443,-386.98409 327.54049,-388.08409 C 327.60655,-389.18409 326.94433,-392.78409 326.06888,-396.08409 C 325.19344,-399.38409 323.74914,-407.16481 322.85933,-413.37459 L 321.2415,-424.66509 L 311.88116,-404.37459 C 306.73297,-393.21481 299.16189,-377.78409 295.05655,-370.08409 C 277.22309,-336.63561 258.16066,-294.69446 257.28735,-286.98431 C 257.15653,-285.82944 255.42925,-279.52944 253.44894,-272.98431 C 251.46863,-266.43919 248.68782,-257.15626 247.26935,-252.35558 C 244.65022,-243.49137 243.15186,-241.58409 238.80724,-241.58409 C 236.67747,-241.58409 236.35996,-240.86574 236.59722,-236.58409 C 236.7493,-233.8396 234.91026,-228.58409 233.79781,-228.58409 C 232.47842,-228.58409 227.7415,-220.40774 227.7415,-218.13035 C 227.7415,-214.96679 221.58038,-210.92693 211.46928,-207.46064 C 201.15515,-203.92474 200.37696,-203.89679 200.98625,-207.08409 C 201.55036,-210.03506 200.96828,-210.13675 196.28798,-207.90487 C 194.35123,-206.98129 192.44042,-206.55184 192.04174,-206.95052 C 191.64305,-207.3492 193.52273,-211.80362 196.21878,-216.84924 C 199.75383,-223.46499 201.0568,-226.97206 200.89151,-229.42634 C 200.41487,-236.50379 205.81151,-247.93492 215.99481,-261.41808 C 220.42777,-267.28752 229.7415,-284.79133 229.7415,-287.25299 C 229.7415,-287.84516 231.34101,-293.21254 233.29597,-299.1805 C 238.7408,-315.80208 243.14057,-339.58699 247.24425,-374.58409 C 249.09114,-390.33476 251.74924,-399.22538 259.83891,-416.70985 C 267.32796,-432.8962 270.36234,-442.25233 272.85447,-456.84173 L 274.86288,-468.59937 L 271.24031,-473.02024 C 266.48361,-478.82516 262.18221,-482.02133 254.46972,-485.4817 C 250.98848,-487.04362 247.03798,-489.69847 245.69084,-491.38137 C 244.34371,-493.06426 241.89151,-496.16083 240.24151,-498.26263 C 232.15624,-508.56185 227.62297,-512.45453 220.58006,-515.14578 C 215.00785,-517.27504 212.26284,-519.15345 206.86159,-524.53331 C 200.40069,-530.96862 195.81935,-536.51764 196.08668,-537.58409 C 196.25493,-538.25527 193.211,-542.53298 187.67137,-549.41035 C 180.81826,-557.91838 179.65716,-560.01465 178.91186,-565.22495 C 178.25059,-569.8478 178.10041,-570.02278 173.92087,-571.04042 C 167.73279,-572.54709 162.48731,-577.45606 155.31854,-588.44938 C 151.86299,-593.74847 146.46166,-601.66467 143.3156,-606.04094 C 137.10011,-614.68687 135.44769,-617.98909 134.3178,-624.02233 C 133.30063,-629.45364 128.54736,-638.49867 124.88274,-641.97639 C 120.90627,-645.75006 115.32602,-646.2921 102.1002,-644.18941 C 96.546646,-643.30648 88.329076,-642.58409 83.838916,-642.58409 C 73.071866,-642.58409 68.296036,-645.01269 56.343796,-656.56586 C 46.230261,-666.34172 39.518958,-672.11354 36.345423,-673.76477 C 32.328729,-675.85471 19.753406,-685.69331 18.784273,-687.50416 C 16.464595,-691.83851 15.835095,-697.86442 17.388226,-700.86784 C 19.297661,-704.56028 31.976115,-710.63836 49.741493,-716.37807 C 67.603586,-722.14903 69.499406,-722.301 83.375136,-719.07426 L 95.091286,-716.34972 L 104.66639,-707.07217 C 115.90267,-696.18508 121.13739,-693.08083 128.2415,-693.09185 C 132.59395,-693.0986 133.95381,-693.65182 138.7415,-697.36346 C 141.7665,-699.70858 145.3665,-701.85601 146.7415,-702.13553 C 148.1165,-702.41505 153.2915,-703.74183 158.2415,-705.08392 C 163.1915,-706.42601 170.89792,-707.82261 175.36688,-708.18747 C 181.98698,-708.72796 183.74691,-709.22943 184.86688,-710.89437 C 185.62292,-712.0183 189.69523,-717.02078 193.91646,-722.01099 C 198.13768,-727.00119 207.57009,-738.95909 214.87736,-748.58409 C 222.18463,-758.20909 228.7434,-766.67873 229.4524,-767.40552 C 230.16141,-768.1323 230.7415,-769.12892 230.7415,-769.62022 C 230.7415,-771.37129 244.30745,-784.21161 247.95309,-785.91117 C 252.80172,-788.17155 255.95556,-787.30054 259.44697,-782.73686 C 261.9038,-779.5255 262.23732,-778.23818 262.20693,-772.08409 C 262.17627,-765.87494 261.5774,-763.71728 256.90624,-752.9862 C 254.00987,-746.33236 251.59232,-740.03236 251.53389,-738.9862 C 251.47547,-737.94004 252.48208,-733.70909 253.77081,-729.58409 C 259.74759,-710.45343 254.49193,-698.83832 235.55714,-689.33159 C 226.48722,-684.77779 221.24762,-680.22281 222.29631,-677.80347 C 222.70622,-676.85781 223.25019,-671.72701 223.50514,-666.40169 C 224.01955,-655.65689 224.51572,-654.76301 232.22669,-650.68941 C 235.26813,-649.08266 238.01362,-648.58409 243.82014,-648.58409 C 252.30527,-648.58409 259.11908,-650.52483 267.78583,-655.41009 C 275.35281,-659.67544 283.5636,-661.58409 294.34564,-661.58409 C 304.01267,-661.58409 319.49246,-662.87674 331.2415,-664.6651 C 340.56365,-666.08405 353.55246,-669.55488 374.7415,-676.28903 C 408.73731,-687.09333 424.50317,-691.02883 440.2415,-692.63925 C 454.93596,-694.14286 482.38078,-693.35811 495.7415,-691.0523 C 515.46478,-687.64843 534.18246,-679.4738 543.926,-670.00854 C 545.93781,-668.05418 551.15497,-657.66423 550.46897,-656.97823 C 550.20453,-656.71379 547.32102,-659.16457 544.06117,-662.42442 C 537.54209,-668.9435 532.53342,-671.81196 518.55244,-677.03325 C 501.42908,-683.42809 483.51266,-686.54144 463.7415,-686.55778 C 453.55735,-686.5662 433.8414,-684.81052 426.7415,-683.26299 C 425.9165,-683.08317 422.5415,-682.38492 419.2415,-681.71132 C 408.67082,-679.55363 393.85599,-675.54651 381.37987,-671.47051 C 360.6665,-664.70335 335.38933,-657.78139 327.13515,-656.61599 C 322.33263,-655.93793 313.95494,-655.75269 305.7415,-656.14297 C 288.63825,-656.95565 278.16828,-654.98243 262.2415,-647.94474 C 251.89875,-643.37451 250.73363,-643.08409 242.7415,-643.08409 C 235.20562,-643.08409 233.69382,-643.40601 229.41299,-645.92225 C 226.75732,-647.48324 224.4324,-648.60824 224.24652,-648.42225 C 224.06063,-648.23626 223.65431,-644.75843 223.34357,-640.69373 C 222.12564,-624.76203 220.32641,-619.09747 212.1917,-605.58409 C 210.37072,-602.55909 207.48012,-596.05588 205.76814,-591.1325 C 204.05616,-586.20913 201.79704,-580.79199 200.74788,-579.09441 C 198.45324,-575.38161 192.74452,-572.04267 187.12201,-571.12486 C 182.59118,-570.38525 180.45618,-567.5854 181.75314,-564.08409 C 182.1606,-562.98409 185.29155,-559.38409 188.7108,-556.08409 C 194.45514,-550.54009 203.44118,-538.86807 203.02523,-537.49097 C 202.44627,-535.57413 219.05532,-522.71692 228.11309,-518.07024 C 230.24247,-516.97786 235.19247,-512.51834 239.11309,-508.16021 C 251.98356,-493.8535 259.16638,-487.11617 264.2415,-484.5903 C 266.9915,-483.22164 270.2311,-481.2534 271.44062,-480.21644 C 272.66164,-479.16962 274.34683,-478.6024 275.22953,-478.94112 C 276.65667,-479.48877 276.76657,-477.78812 276.3037,-462.31764 C 275.6807,-441.49514 273.64027,-432.33078 265.39446,-413.3199 C 259.24168,-399.13454 254.015,-378.36458 251.24294,-357.08409 C 250.3832,-350.48409 249.26465,-341.93409 248.75726,-338.08409 C 247.12724,-325.71562 241.23971,-305.28715 235.90339,-293.48386 C 228.23079,-276.51301 225.23315,-270.70455 218.66378,-260.079 C 208.05937,-242.92701 207.3129,-241.25075 207.27469,-234.50395 C 207.22939,-226.50665 209.57757,-224.03835 217.06413,-224.21372 C 223.00736,-224.35294 230.05592,-227.43455 231.77402,-230.64485 C 232.37868,-231.77467 232.73122,-234.9685 232.55745,-237.74225 C 232.24602,-242.71328 232.29142,-242.80187 235.73099,-243.93476 C 239.77912,-245.26809 240.58856,-247.17446 245.77246,-267.58409 C 254.61869,-302.41272 263.42214,-324.76238 278.85977,-351.58409 C 283.02357,-358.81837 313.81907,-419.96132 318.14556,-429.58409 C 331.30222,-458.84648 333.78057,-466.29967 334.46306,-478.65602 C 334.88243,-486.24878 334.55868,-490.074 332.89732,-497.15602 C 331.74539,-502.06646 330.31854,-510.58409 329.72655,-516.08409 C 329.13456,-521.58409 328.18373,-527.55301 327.61359,-529.34836 C 326.52856,-532.76508 320.17779,-541.35784 315.8004,-545.33191 L 313.2415,-547.65504 L 317.2415,-546.07223 C 325.98354,-542.61298 331.72421,-534.04368 333.31141,-522.08409 C 333.75552,-518.73776 334.82509,-516.17457 336.54533,-514.33409 C 339.5396,-511.13055 340.44349,-510.92756 340.99833,-513.33409 C 341.32238,-514.73963 341.66366,-514.54279 342.73217,-512.33409 C 344.11513,-509.47537 346.11868,-508.76734 347.32087,-510.71251 C 347.79418,-511.47835 348.32255,-511.29719 348.96529,-510.14869 C 350.99968,-506.51343 358.74578,-506.52461 357.35044,-510.16078 C 356.6359,-512.02286 358.73387,-511.97817 361.45335,-510.07337 C 364.26846,-508.10158 365.10094,-509.49708 364.22003,-514.71119 C 363.56277,-518.60143 363.61997,-518.7195 365.63833,-517.63931 C 366.79507,-517.02023 368.34279,-515.51705 369.07769,-514.29891 C 373.35475,-507.20944 373.81905,-506.67662 375.24349,-507.22323 C 376.0965,-507.55056 376.7415,-509.04371 376.7415,-510.69108 C 376.7415,-513.99061 378.63669,-514.43061 382.7415,-512.08409 C 386.0656,-510.18386 388.7415,-510.21633 388.7415,-512.15689 C 388.7415,-513.31774 389.72247,-512.9211 392.48672,-510.64257 C 394.5466,-508.94465 396.37567,-507.9866 396.55133,-508.51359 C 396.72699,-509.04057 397.42678,-509.25835 398.10642,-508.99755 C 398.79871,-508.7319 400.07359,-510.05729 401.00547,-512.01146 C 402.6052,-515.36612 402.57927,-515.70206 400.32763,-520.79342 C 396.59694,-529.22918 395.49332,-536.27079 396.70911,-543.88131 C 397.90563,-551.37123 399.56412,-556.49777 399.68632,-553.08409 C 399.72569,-551.98409 400.21401,-547.03409 400.77146,-542.08409 C 402.6872,-525.07293 407.51626,-514.66116 418.58235,-503.68263 C 430.30834,-492.04943 466.67271,-467.89872 491.15203,-455.48685 C 520.06779,-440.82556 537.03158,-429.74175 545.79871,-419.78176 C 552.19994,-412.50957 559.00891,-397.25785 560.17301,-387.58409 C 560.33847,-386.20909 561.04939,-381.27891 561.75283,-376.62814 C 563.24384,-366.77036 562.60693,-346.96694 560.23587,-329.46152 C 559.83528,-326.50393 559.37252,-323.40909 559.20752,-322.58409 C 559.04253,-321.75909 558.23222,-317.70909 557.40684,-313.58409 C 556.58146,-309.45909 555.18327,-301.80909 554.29974,-296.58409 C 553.41622,-291.35909 550.61594,-275.38409 548.0769,-261.08409 C 541.7077,-225.21252 541.96174,-217.78378 549.78266,-211.20291 C 553.78782,-207.83279 556.22093,-207.27248 564.75593,-207.75475 C 569.52405,-208.02417 571.7415,-207.78993 571.7415,-207.01682 C 571.7415,-204.88593 565.76077,-197.62516 561.99919,-195.1894 C 558.66665,-193.03145 540.42356,-186.58409 537.65009,-186.58409 C 536.98288,-186.58409 536.83107,-187.71543 537.24526,-189.60119 z M 356.7415,-266.52507 C 356.7415,-267.04261 356.2915,-267.74417 355.7415,-268.08409 C 355.1915,-268.42401 354.7415,-269.77469 354.7415,-271.08561 C 354.7415,-273.17247 355.2675,-273.50736 358.96811,-273.77659 C 362.30812,-274.01959 363.45875,-274.60851 364.45337,-276.58409 C 366.68238,-281.01148 365.91229,-290.49081 362.01158,-306.64101 L 358.28166,-322.08409 L 358.34463,-352.08409 C 358.40524,-380.96716 358.51218,-382.58671 361.21679,-395.58409 C 363.77287,-407.86762 364.03859,-411.11154 364.16571,-431.58409 C 364.26305,-447.26064 363.90443,-455.73792 362.98318,-459.53751 C 361.95279,-463.78724 361.91137,-466.10483 362.7955,-470.03751 C 364.45792,-477.43214 367.67965,-485.39955 371.31735,-491.11227 C 374.33374,-495.84925 374.42425,-496.25608 372.88033,-498.13713 C 371.97897,-499.2353 370.42052,-499.97068 369.4171,-499.7713 C 368.41367,-499.57192 366.72342,-500.19547 365.66097,-501.15697 C 364.59852,-502.11848 363.6195,-502.72042 363.48537,-502.49463 C 363.35124,-502.26883 362.74327,-501.18409 362.13432,-500.08409 C 360.64224,-497.38883 357.89871,-497.00161 356.19779,-499.24622 C 354.91533,-500.93863 354.80259,-500.82687 354.7733,-497.83409 C 354.73125,-493.53613 353.24716,-493.72269 350.79592,-498.33409 C 348.93418,-501.83649 348.75983,-501.93553 348.1554,-499.83409 C 347.2866,-496.81351 345.56806,-496.99808 343.49973,-500.33409 L 341.79472,-503.08409 L 341.76811,-499.50076 C 341.73688,-495.29584 340.94103,-494.17361 339.08351,-495.71521 C 337.37331,-497.13455 337.39144,-496.85845 339.4665,-489.88288 C 340.49519,-486.42479 341.20159,-480.65303 341.2165,-475.58409 L 341.2415,-467.08409 L 333.9915,-452.81646 C 327.45619,-439.95531 326.74463,-437.98375 326.77321,-432.81646 C 326.80885,-426.37415 328.81685,-411.68727 331.13195,-400.93588 C 331.97852,-397.00436 332.90953,-391.2116 333.20086,-388.06308 C 333.49219,-384.91456 334.1684,-380.70625 334.70356,-378.71129 C 336.59872,-371.64651 341.64775,-338.07987 340.85693,-337.80285 C 340.41536,-337.64817 340.54624,-334.94817 341.14779,-331.80285 C 342.46075,-324.9377 342.35462,-290.69168 340.99237,-281.65359 C 340.4593,-278.11681 340.22291,-274.45916 340.46708,-273.52548 C 341.0354,-271.3522 344.91796,-269.58409 349.12189,-269.58409 C 353.22782,-269.58409 354.22281,-268.67094 351.97596,-266.96477 C 350.42728,-265.78877 350.58961,-265.64429 353.4915,-265.61589 C 355.279,-265.5984 356.7415,-266.00753 356.7415,-266.52507 z M 355.62373,-279.33409 C 355.55895,-279.74659 355.58892,-286.15909 355.69032,-293.58409 C 355.81486,-302.70411 355.36641,-309.45751 354.30809,-314.39947 C 353.44647,-318.42292 352.77755,-325.62292 352.8216,-330.39947 L 352.9017,-339.08409 L 356.27844,-321.58409 C 360.2881,-300.80394 362.29331,-284.91883 361.37076,-281.2431 C 360.8726,-279.25827 360.07437,-278.58409 358.22245,-278.58409 C 356.85793,-278.58409 355.6885,-278.92159 355.62373,-279.33409 z M 378.7415,-500.58409 C 378.7415,-501.13409 378.2915,-501.58409 377.7415,-501.58409 C 377.1915,-501.58409 376.7415,-501.13409 376.7415,-500.58409 C 376.7415,-500.03409 377.1915,-499.58409 377.7415,-499.58409 C 378.2915,-499.58409 378.7415,-500.03409 378.7415,-500.58409 z M 187.61553,-575.03816 C 193.7946,-576.68277 197.36444,-579.59086 198.271,-583.7184 C 198.61928,-585.30413 199.31763,-586.34606 199.82287,-586.0338 C 200.32812,-585.72154 200.7415,-586.06364 200.7415,-586.79401 C 200.7415,-589.34022 207.00166,-603.1177 210.20464,-607.62067 C 215.8886,-615.61159 219.41603,-626.66202 220.08851,-638.58409 C 220.41426,-644.35909 220.87918,-650.43409 221.12167,-652.08409 C 221.75898,-656.42058 218.99311,-670.24061 216.29703,-676.19105 C 214.88305,-679.31181 212.47767,-682.42089 210.11231,-684.18514 C 207.98336,-685.77306 205.90631,-687.59334 205.49664,-688.2302 C 201.85639,-693.88921 194.77226,-701.12013 191.34233,-702.67781 C 184.25326,-705.89725 174.20018,-705.27063 160.06557,-700.72828 C 150.29209,-697.58743 147.01349,-696.01413 142.38417,-692.2435 C 139.25845,-689.69757 135.47159,-686.97875 133.96891,-686.20169 C 127.31502,-682.76083 124.77188,-675.59507 124.75337,-660.23522 C 124.74113,-650.07801 125.62354,-646.80136 129.77618,-641.58409 C 131.6046,-639.28691 131.85019,-639.22606 132.80346,-640.83409 C 134.38799,-643.507 136.89125,-642.9598 142.9603,-638.61384 C 149.18766,-634.15453 150.42353,-632.12326 148.23863,-629.93836 C 147.41521,-629.11494 146.7415,-627.82389 146.7415,-627.06937 C 146.7415,-626.31484 145.74137,-624.99698 144.51899,-624.14079 C 141.91054,-622.31376 137.7415,-622.07384 137.7415,-623.75076 C 137.7415,-624.39242 137.45568,-624.6316 137.10633,-624.28226 C 136.03611,-623.21203 141.95064,-612.4132 146.93408,-606.33863 C 149.52648,-603.17863 153.72237,-596.87863 156.25829,-592.33863 C 161.68146,-582.62965 162.32994,-581.74065 166.12636,-578.8106 C 169.049,-576.55493 170.8389,-575.96721 170.62308,-577.33409 C 170.2647,-579.60381 171.00998,-579.41847 173.33039,-576.66082 C 176.31449,-573.11442 179.16931,-572.79014 187.61553,-575.03816 z M 166.26746,-583.55541 C 163.76643,-586.31902 162.59638,-593.2999 163.91616,-597.58409 C 165.26329,-601.95709 167.26733,-604.27755 171.74045,-606.64373 C 173.66603,-607.66231 174.74492,-608.51559 174.13799,-608.53989 C 173.37109,-608.57061 173.46666,-610.18554 174.45131,-613.83409 C 175.40546,-617.36964 175.67056,-621.45167 175.26312,-626.33409 C 174.71518,-632.90012 174.8298,-633.58409 176.47817,-633.58409 C 177.85677,-633.58409 178.72423,-632.06814 180.05457,-627.33409 C 181.02055,-623.89659 182.79738,-619.05909 184.00308,-616.58409 C 185.20878,-614.10909 186.35567,-611.74659 186.55172,-611.33409 C 186.74776,-610.92159 185.63317,-610.54582 184.07483,-610.49904 C 181.99232,-610.43654 182.56888,-610.09137 186.2506,-609.19649 C 198.32189,-606.26246 202.93565,-601.73243 200.7127,-594.99683 C 199.72309,-591.99828 199.1499,-591.51291 196.90822,-591.77523 C 194.72008,-592.03129 193.97219,-591.45609 192.53329,-588.41047 C 191.57871,-586.38998 189.78492,-584.02748 188.54709,-583.16047 C 185.88916,-581.29879 177.95371,-581.07465 174.26143,-582.75696 C 172.29236,-583.65413 171.41154,-583.65413 170.51437,-582.75696 C 168.91601,-581.1586 168.33824,-581.26722 166.26746,-583.55541 z M 176.12261,-595.53889 C 177.91662,-596.22097 178.82388,-597.50628 179.299,-600.03889 C 180.04058,-603.99185 180.49533,-604.30301 182.17461,-602.00646 C 183.21397,-600.58504 183.5604,-600.61686 185.67331,-602.32779 L 188.01842,-604.22675 L 184.95368,-605.4962 C 181.34785,-606.98979 179.69355,-606.57372 173.42071,-602.59561 C 169.86974,-600.34364 168.7415,-599.02004 168.7415,-597.10611 C 168.7415,-595.1006 169.24017,-594.58409 171.1764,-594.58409 C 172.5156,-594.58409 174.74139,-595.01375 176.12261,-595.53889 z M 205.91306,-640.66939 C 202.88666,-643.42142 202.64508,-644.05392 203.25089,-647.63967 C 203.99683,-652.05487 209.59224,-657.58409 213.31436,-657.58409 C 218.6576,-657.58409 220.739,-649.30054 217.40234,-641.31478 C 216.04371,-638.06313 215.41969,-637.58785 212.54253,-637.6134 C 210.29555,-637.63336 208.1787,-638.60916 205.91306,-640.66939 z M 211.7415,-653.16742 C 211.7415,-654.93335 209.58874,-654.62581 208.97067,-652.77159 C 208.75296,-652.11847 209.28733,-651.58409 210.15817,-651.58409 C 211.029,-651.58409 211.7415,-652.29659 211.7415,-653.16742 z M 140.7415,-638.08409 C 140.7415,-638.90909 140.0665,-639.58409 139.2415,-639.58409 C 137.67993,-639.58409 137.25753,-638.40139 138.40817,-637.25076 C 139.5588,-636.10012 140.7415,-636.52252 140.7415,-638.08409 z M 97.241496,-649.13395 C 105.98852,-651.34784 112.06592,-651.86463 116.13654,-650.74068 C 118.11062,-650.19561 119.9493,-650.11131 120.22249,-650.55334 C 120.67292,-651.28214 117.88277,-668.61661 117.18462,-669.42688 C 117.02217,-669.61541 114.30301,-668.35031 111.14203,-666.61555 C 107.98106,-664.88078 105.96345,-664.1466 106.65846,-664.98403 C 107.35347,-665.82147 108.78147,-666.77939 109.8318,-667.11275 C 110.88213,-667.44611 111.7415,-668.1743 111.7415,-668.73093 C 111.7415,-669.78328 106.09755,-668.96294 104.2415,-667.64081 C 103.6915,-667.24903 100.9915,-665.6996 98.241496,-664.19763 L 93.241496,-661.46678 L 97.514216,-665.43147 C 99.864216,-667.61205 103.46422,-669.84193 105.51422,-670.38677 L 109.2415,-671.37739 L 104.59649,-671.48074 C 101.05375,-671.55956 98.087456,-670.65098 92.096486,-667.65194 C 87.776236,-665.48925 85.366496,-664.6134 86.741496,-665.70559 C 88.116496,-666.79779 90.141066,-668.43381 91.240546,-669.3412 C 93.675036,-671.35037 99.412666,-673.48055 102.55051,-673.5402 C 105.55915,-673.59739 104.34811,-675.58409 101.3046,-675.58409 C 100.02923,-675.58409 97.370236,-674.90909 95.395736,-674.08409 C 89.793416,-671.74329 89.690876,-672.48143 95.241496,-675.19441 L 100.2415,-677.63827 L 96.241496,-677.18858 C 94.041496,-676.94125 90.666496,-676.47416 88.741496,-676.15061 L 85.241496,-675.56234 L 89.241496,-677.54699 L 93.241496,-679.53164 L 88.793096,-679.55787 C 83.562626,-679.5887 68.749386,-675.30034 63.741496,-672.30556 C 60.259126,-670.22305 60.250496,-670.22286 62.027726,-672.26708 C 66.897136,-677.86799 85.162766,-683.62987 93.957016,-682.33915 C 97.669246,-681.79431 97.466396,-682.25437 93.210306,-684.03268 C 91.268146,-684.84416 85.305646,-685.70463 79.960306,-685.94483 C 68.712916,-686.45025 68.207436,-686.5576 72.241496,-687.58409 C 76.809046,-688.74633 88.624756,-688.71694 90.827906,-687.53785 C 95.014106,-685.29746 94.578646,-687.9928 89.588086,-695.21191 C 86.739026,-699.33322 83.154656,-703.35332 81.622816,-704.14546 C 80.090986,-704.9376 75.328526,-706.21997 71.039576,-706.99517 L 63.241496,-708.40462 L 69.313356,-708.49435 C 76.951396,-708.60724 84.251346,-706.2313 88.641666,-702.2035 C 92.427926,-698.72989 91.931596,-700.11752 87.305236,-705.93985 C 81.246316,-713.5651 72.208316,-715.69993 57.055626,-713.085 C 44.896873,-710.98674 29.277687,-704.63253 23.991493,-699.63382 C 20.172493,-696.02251 20.920089,-691.30268 26.104008,-686.29679 C 28.503391,-683.9798 33.115891,-680.73585 36.354008,-679.08799 C 39.592125,-677.44014 45.841493,-672.70626 50.241493,-668.56825 C 70.923676,-649.11759 80.891826,-644.9958 97.241496,-649.13395 z M 233.2415,-695.60891 C 246.42528,-702.89511 250.09156,-707.71196 249.92479,-717.52781 C 249.87286,-720.58376 249.14025,-725.33409 248.29677,-728.08409 C 246.06271,-735.36771 246.36307,-738.17904 250.32676,-747.08409 C 257.31204,-762.77762 258.75603,-767.31889 258.19618,-771.83292 C 257.44636,-777.87865 253.94999,-781.07057 248.48054,-780.70257 C 245.4322,-780.49747 230.78491,-765.6084 227.72495,-759.60437 C 224.88699,-754.03595 220.46136,-747.80292 213.39411,-739.42089 C 206.8856,-731.70155 202.56503,-719.31766 202.56503,-708.38187 L 202.56503,-701.54872 L 210.40326,-693.23477 L 218.2415,-684.92083 L 222.7415,-688.60687 C 225.2165,-690.6342 229.9415,-693.78511 233.2415,-695.60891 z M 220.29604,-715.58409 C 220.36193,-742.76883 220.63865,-743.84917 231.31013,-758.58409 C 235.49256,-764.35909 239.13829,-769.30909 239.41175,-769.58409 C 239.68521,-769.85909 238.90997,-767.60909 237.689,-764.58409 C 234.50892,-756.70529 229.7415,-741.88371 229.7415,-739.87583 C 229.7415,-738.6552 231.08235,-739.44011 234.43943,-742.62588 L 239.13735,-747.08409 L 235.60372,-742.58409 C 233.66022,-740.10909 231.20866,-736.73409 230.15579,-735.08409 L 228.2415,-732.08409 L 232.53761,-735.45464 C 237.57948,-739.41028 239.17022,-739.06645 234.91489,-734.9408 C 233.29432,-733.36961 231.15746,-730.79603 230.16632,-729.22175 L 228.36426,-726.3594 L 232.80288,-729.39409 C 235.24412,-731.06317 238.3665,-732.69423 239.7415,-733.01867 C 241.31773,-733.39059 240.75553,-732.83312 238.22002,-731.50999 C 236.0082,-730.35578 233.21026,-727.90379 232.00237,-726.06113 L 229.8062,-722.71084 L 234.02385,-724.6255 C 236.34356,-725.67857 239.3665,-726.50286 240.7415,-726.45727 C 242.76995,-726.39002 242.52681,-726.15253 239.45248,-725.19818 C 237.36852,-724.55127 234.10602,-722.77927 232.20248,-721.26041 C 228.39714,-718.22406 227.44444,-715.81955 230.74703,-717.58705 C 231.85007,-718.17738 235.78757,-718.85338 239.49703,-719.08929 L 246.2415,-719.5182 L 240.7415,-718.54459 C 234.81972,-717.49631 229.74188,-715.72756 229.74088,-714.71277 C 229.74054,-714.367 232.10304,-714.16084 234.99088,-714.25464 C 239.97591,-714.41656 239.55163,-714.24178 231.9915,-713.01908 C 229.06743,-712.54618 228.7415,-712.15354 228.7415,-709.10388 C 228.7415,-704.43417 227.22346,-700.86416 223.44968,-696.659 L 220.2415,-693.08409 L 220.29604,-715.58409 z M 561.96401,-212.14079 C 559.57095,-213.81695 559.06405,-217.44974 560.77668,-220.64983 C 562.09432,-223.11187 564.31728,-223.0946 569.2415,-220.58409 C 574.38795,-217.96028 576.35278,-218.0612 578.31106,-221.04991 C 579.62806,-223.05991 579.80237,-225.04713 579.25401,-231.79991 C 578.68382,-238.82159 578.95822,-241.53188 581.05459,-249.58409 C 582.5709,-255.40826 583.34634,-260.63181 583.0587,-263.08409 C 582.18916,-270.49727 582.52264,-274.73096 586.76077,-310.08409 C 588.34319,-323.28409 589.63727,-336.80085 589.63652,-340.12134 C 589.63576,-343.44183 590.06772,-349.06683 590.59643,-352.62134 C 591.12513,-356.17585 592.07342,-364.93409 592.70374,-372.08409 C 593.33406,-379.23409 594.72703,-392.50909 595.79924,-401.58409 C 598.13857,-421.38381 598.30551,-440.56619 596.21565,-449.4313 C 593.61284,-460.47232 586.0588,-469.58751 575.2415,-474.74003 C 563.0166,-480.56302 546.38483,-493.3481 541.8582,-500.40224 C 535.18511,-510.80134 534.23757,-514.08365 534.30003,-526.58409 C 534.35169,-536.92467 534.85135,-540.05006 539.256,-557.58409 C 544.01753,-576.53874 544.15555,-577.50359 544.19107,-592.08409 C 544.23167,-608.74684 542.86846,-617.2529 538.9024,-625.08409 C 536.28984,-630.24271 535.38612,-638.98563 537.04483,-643.05484 C 537.67497,-644.60075 538.49553,-643.09172 540.85118,-636.05484 C 544.13247,-626.25287 544.76232,-625.31992 549.80474,-622.79265 C 551.67966,-621.85294 553.80265,-619.95909 554.5225,-618.58409 C 556.04634,-615.6734 555.47967,-608.14182 553.28106,-602.08409 C 551.24243,-596.46716 551.43169,-586.3969 553.7415,-577.58409 C 554.82265,-573.45909 555.71494,-569.21815 555.72436,-568.15978 C 555.74025,-566.37581 555.55916,-566.40676 553.2415,-568.58409 C 551.8665,-569.87584 550.73899,-571.41678 550.73592,-572.0084 C 550.73286,-572.60003 550.23322,-574.87474 549.62563,-577.06331 C 548.53404,-580.99522 548.46928,-580.83471 544.17841,-563.56331 C 538.80176,-541.92148 538.09317,-534.92794 540.05939,-522.90965 C 543.37731,-502.62924 549.55817,-496.03253 582.79902,-477.29448 C 588.59736,-474.02593 594.87496,-467.22763 598.25605,-460.55537 C 604.1439,-448.93627 605.04243,-433.7582 601.79157,-400.83316 C 600.71912,-389.97117 598.90105,-370.73409 597.75144,-358.08409 C 596.60182,-345.43409 594.53804,-324.28409 593.16527,-311.08409 C 590.3999,-284.4935 590.04446,-276.31584 591.22023,-266.33409 C 592.01163,-259.61541 592.02977,-259.58411 595.12841,-259.58783 C 598.97908,-259.59245 604.34005,-262.74386 605.22147,-265.52097 C 605.58366,-266.66214 605.15679,-270.08358 604.27287,-273.12417 C 603.38895,-276.16475 602.93435,-279.08711 603.26264,-279.61829 C 603.59093,-280.14948 605.39214,-280.58409 607.26533,-280.58409 C 612.81458,-280.58409 613.03716,-281.83217 612.23685,-308.46022 C 611.50162,-332.92267 611.69686,-336.56024 617.4496,-405.58409 C 619.91875,-435.21007 619.8647,-455.48004 617.29892,-462.08409 C 612.94117,-473.30051 606.88844,-480.20723 597.7415,-484.4009 C 586.93198,-489.35684 574.96676,-497.53163 569.0143,-504.02768 C 561.45899,-512.27297 557.83661,-519.74234 555.65041,-531.58409 L 553.89653,-541.08409 L 556.8962,-556.58409 C 559.34475,-569.23632 559.79394,-573.64577 559.34108,-580.58409 C 559.03595,-585.25909 558.77621,-589.94659 558.7639,-591.00076 C 558.7309,-593.82495 557.71894,-592.32909 555.63282,-586.37246 L 553.78074,-581.08409 L 554.39098,-586.08409 C 554.7266,-588.83409 555.66535,-592.39124 556.47708,-593.98888 C 557.38563,-595.77707 557.73585,-598.2315 557.38816,-600.37402 C 556.90995,-603.3209 557.01402,-603.59365 558.06713,-602.15344 C 559.15991,-600.65898 559.66396,-601.19124 562.21967,-606.53841 C 563.8195,-609.88566 565.94139,-613.36 566.93498,-614.25919 C 568.64074,-615.80288 568.7415,-615.71809 568.7415,-612.73908 C 568.7415,-611.00383 569.17567,-609.58409 569.70632,-609.58409 C 571.66785,-609.58409 572.96633,-614.06712 573.07514,-621.21505 L 573.18699,-628.5631 L 568.25184,-633.57359 L 563.31668,-638.58409 L 566.72909,-638.58409 C 571.42837,-638.58409 570.05845,-639.69371 557.68847,-645.90688 C 552.01937,-648.75435 547.20177,-651.64013 546.98271,-652.31974 C 546.76364,-652.99935 547.68259,-654.05576 549.02482,-654.66732 C 551.14585,-655.63372 552.10495,-655.32409 556.35337,-652.30136 C 559.04184,-650.38852 563.0415,-647.91707 565.2415,-646.80923 C 568.93497,-644.94935 580.7415,-633.67153 580.7415,-632.00334 C 580.7415,-631.60227 579.91857,-632.01886 578.91276,-632.9291 C 576.06382,-635.50735 574.41306,-635.03448 575.09017,-631.83409 C 578.22445,-617.02003 578.23896,-617.76786 574.6097,-607.07277 C 572.74545,-601.579 570.78919,-597.08409 570.26245,-597.08409 C 569.73572,-597.08409 568.92654,-598.99659 568.46428,-601.33409 C 568.00202,-603.67159 567.31278,-605.58322 566.93265,-605.58216 C 566.55252,-605.58109 564.79435,-603.44359 563.0256,-600.83216 L 559.8097,-596.08409 L 561.7756,-588.65172 C 564.18731,-579.53389 564.24027,-572.62197 562.05395,-552.31975 C 560.11135,-534.28058 560.93123,-525.4621 565.43549,-515.94897 C 569.10108,-508.20713 579.5119,-500.0863 598.00602,-490.54274 C 606.79942,-486.00505 613.09747,-481.00648 616.92697,-475.52574 C 626.66891,-461.58316 627.0655,-448.18454 620.15156,-366.58409 C 616.5836,-324.4739 616.51413,-322.66481 617.78147,-304.86642 C 619.25821,-284.12714 618.80491,-280.30166 614.31163,-275.58409 C 611.81538,-272.96324 610.80637,-270.82816 610.29464,-267.08409 C 608.5106,-254.03133 608.04081,-251.90496 606.39202,-249.42024 C 604.86332,-247.11648 599.32887,-243.58409 597.2481,-243.58409 C 596.86797,-243.58409 595.41279,-242.68409 594.01437,-241.58409 C 590.37777,-238.72354 587.7415,-238.95848 587.7415,-242.14311 C 587.7415,-243.59447 587.30866,-244.43461 586.7415,-244.08409 C 586.1915,-243.74417 585.7415,-239.74929 585.7415,-235.20657 C 585.7415,-225.91036 583.73579,-217.79389 580.77683,-215.11606 C 579.12226,-213.6187 577.79021,-213.43338 572.76686,-214.00171 C 567.13778,-214.63857 566.7415,-214.5486 566.7415,-212.63375 C 566.7415,-210.18885 565.0064,-210.00982 561.96401,-212.14079 z M 550.45142,-609.3394 C 551.61987,-613.94274 550.36402,-618.25174 547.59807,-619.12961 C 546.49406,-619.48001 545.43474,-619.61067 545.24403,-619.41995 C 544.66067,-618.8366 548.07773,-605.58409 548.8115,-605.58409 C 549.1892,-605.58409 549.92716,-607.27398 550.45142,-609.3394 z M 567.14851,-226.96583 C 566.85688,-227.72579 568.03113,-232.33829 569.75795,-237.21583 C 574.15376,-249.63216 575.73145,-255.45984 575.80489,-259.55202 C 575.85777,-262.49888 576.00894,-262.73612 576.71725,-260.98388 C 577.63853,-258.70482 575.85435,-247.80426 573.4601,-241.08409 C 572.27961,-237.77069 572.25421,-236.48332 573.31216,-233.58409 C 574.01461,-231.65909 574.62358,-229.07159 574.66542,-227.83409 C 574.73044,-225.91116 574.22817,-225.58409 571.21012,-225.58409 C 569.12793,-225.58409 567.46114,-226.15112 567.14851,-226.96583 z M 275.15405,-376.96284 C 276.40183,-380.72271 277.67926,-387.32393 279.33807,-398.58409 C 280.26985,-404.90909 281.4168,-410.51159 281.88686,-411.03409 C 282.36597,-411.56666 282.7415,-407.51869 282.7415,-401.8216 C 282.7415,-394.10111 282.2621,-390.38855 280.74647,-386.3716 C 278.8785,-381.42087 273.79546,-372.86909 275.15405,-376.96284 z "
         id="path2169"
         sodipodi:nodetypes="cccssssssssssssssscccscccsssssssssssssssssssssssssscccssssssssssssssssssscccsssssssssssssssssssscccsssssssssssssssssssssssssssssssssssssssssssssssssssssssssssssssssssssssscccssssssssssssssssssssssssssssssssssssssccsssscccsssssssssssssscccsscccsssssssssssccsscccssccsssccsssssssssssssssssssssssssssccsssssssssssssssssccsscccsssccssssccssccssccssssssssccccccssssssccccccccssssssssscccsssssssccssssssscccccccssssccccccscccsscccsssscccssssccccsssssssssssssssssssssssssssssssssssssssssssssscccsscccssssssscccccsssssssssssscccsssssssssssssssssccsssccsssssssccssssc" />
    </g>
  </g>
</svg>
